<!-- icon666.com - MILLIONS vector ICONS FREE --><svg viewBox="0 0 32 32" xmlns="http://www.w3.org/2000/svg"><g id="home"><g fill="none"><path d="m16.293 7.6a.482.482 0 0 0 -.273-.1h-.02a.489.489 0 0 0 -.293.1l-7.849 5.884a.378.378 0 0 0 .227.681h1.1a.5.5 0 0 1 .5.5v6.814a1.771 1.771 0 0 0 1.772 1.771h1.771v-5.178a1.637 1.637 0 0 1 1.635-1.636h2.272a1.637 1.637 0 0 1 1.635 1.636v5.178h1.771a1.771 1.771 0 0 0 1.772-1.771v-6.814a.5.5 0 0 1 .5-.5h1.1a.378.378 0 0 0 .227-.681z"></path><path d="m17.136 17.436h-2.272a.637.637 0 0 0 -.635.636v5.178h3.542v-5.178a.637.637 0 0 0 -.635-.636z"></path><path d="m16 2.5c-.282 0-.558.025-.836.042a13.991 13.991 0 0 0 0 26.915c.278.017.554.042.836.042a13.5 13.5 0 0 0 0-27zm9.223 11.723a1.379 1.379 0 0 1 -1.308.942h-.6v6.314a2.772 2.772 0 0 1 -2.772 2.771h-9.085a2.772 2.772 0 0 1 -2.772-2.771v-6.314h-.6a1.378 1.378 0 0 1 -.827-2.481l7.848-5.884a1.484 1.484 0 0 1 .869-.3h.053a1.48 1.48 0 0 1 .864.3l7.849 5.886a1.379 1.379 0 0 1 .481 1.537z"></path></g><path d="m5 16a14.006 14.006 0 0 1 10.164-13.458 13.483 13.483 0 0 0 0 26.915 14.007 14.007 0 0 1 -10.164-13.457z" fill="#ddeaff"></path><path d="m16 1.5a14.5 14.5 0 1 0 14.5 14.5 14.507 14.507 0 0 0 -14.5-14.5zm0 28c-.282 0-.558-.025-.836-.042a13.483 13.483 0 0 1 0-26.915c.278-.017.554-.042.836-.042a13.5 13.5 0 0 1 0 27z" fill="#0097e6" style="fill: rgb(17, 255, 0);"></path><path d="m16.893 6.8a1.48 1.48 0 0 0 -.864-.3h-.053a1.484 1.484 0 0 0 -.869.3l-7.849 5.884a1.378 1.378 0 0 0 .827 2.481h.6v6.314a2.772 2.772 0 0 0 2.772 2.771h9.084a2.772 2.772 0 0 0 2.772-2.771v-6.314h.6a1.378 1.378 0 0 0 .827-2.481zm.878 16.452h-3.542v-5.18a.637.637 0 0 1 .635-.636h2.272a.637.637 0 0 1 .635.636zm6.5-9.343a.378.378 0 0 1 -.359.258h-1.1a.5.5 0 0 0 -.5.5v6.814a1.771 1.771 0 0 1 -1.772 1.771h-1.769v-5.18a1.637 1.637 0 0 0 -1.635-1.636h-2.272a1.637 1.637 0 0 0 -1.635 1.636v5.178h-1.771a1.771 1.771 0 0 1 -1.772-1.771v-6.814a.5.5 0 0 0 -.5-.5h-1.1a.378.378 0 0 1 -.227-.681l7.848-5.884a.489.489 0 0 1 .293-.1h.02a.482.482 0 0 1 .273.1l7.849 5.886a.379.379 0 0 1 .132.421z" fill="#487eb0" style="fill: rgb(32, 148, 0);"></path></g></svg>