<!-- icon666.com - MILLIONS vector ICONS FREE --><svg clip-rule="evenodd" fill-rule="evenodd" stroke-linecap="round" stroke-linejoin="round" stroke-miterlimit="1.5" viewBox="0 0 267 267" xmlns="http://www.w3.org/2000/svg"><g><path d="m50 154.167c56.944 9.876 113.889 9.544 170.833 0v-79.167c0-.902-.292-1.779-.833-2.5l-37.5-50c-.787-1.049-2.022-1.667-3.333-1.667h-116.667c-3.315 0-6.495 1.317-8.839 3.661-2.344 2.345-3.661 5.524-3.661 8.839v95.834c0 6.188-1.451 11.433-1.451 15.614 0 5.78 1.451 9.386 1.451 9.386z" fill="#d8dfe3"/><path d="m25 143.365v89.968c0 3.315 1.317 6.495 3.661 8.839s5.524 3.661 8.839 3.661h191.667c3.315 0 6.494-1.317 8.839-3.661 2.344-2.344 3.661-5.524 3.661-8.839 0-15.966 0-50.7 0-66.666 0-3.315-1.317-6.495-3.661-8.839-2.345-2.344-5.524-3.661-8.839-3.661h-187.5c-5.316 0-16.667-10.802-16.667-10.802z" fill="#2d98db"/><path d="m37.5 154.167c-3.804 0-6.581-1.543-8.625-3.443-1.923-1.788-3.875-4.939-3.875-9.057 0-2.643 1.317-6.495 3.661-8.839s5.524-3.661 8.839-3.661h12.5v25s1.071 0-12.5 0z" fill="#216896"/><path d="m179.167 20.833v41.667c0 3.315 1.317 6.495 3.661 8.839s5.523 3.661 8.839 3.661h29.166c0-.902-.292-1.779-.833-2.5l-37.5-50c-.787-1.049-2.022-1.667-3.333-1.667z" fill="#afbdc7"/><path d="m87.5 75h54.167" fill="none" stroke="#000" stroke-width="8.33"/><path d="m87.5 100h95.833" fill="none" stroke="#000" stroke-width="8.33"/><path d="m87.5 125h95.833" fill="none" stroke="#000" stroke-width="8.33"/><g fill="#d8dfe3"><path d="m82.988 195.833c0-5.525-2.195-10.824-6.102-14.731s-9.206-6.102-14.731-6.102c-7.45 0-14.583 0-14.583 0-2.302 0-4.167 1.865-4.167 4.167v41.666c0 2.302 1.865 4.167 4.167 4.167h14.583c5.525 0 10.824-2.195 14.731-6.102s6.102-9.206 6.102-14.731zm-8.333 0v8.334c0 3.315-1.317 6.494-3.661 8.839-2.344 2.344-5.524 3.661-8.839 3.661h-10.417v-33.334h10.417c3.315 0 6.495 1.317 8.839 3.661 2.344 2.345 3.661 5.524 3.661 8.839z"/><path d="m156.832 175.414h-2.382c-11.506 0-20.833 9.327-20.833 20.833v8.334c0 11.506 9.327 20.833 20.833 20.833h2.382c7.432 0 14.182-4.336 17.272-11.096.431-.942.793-1.734.793-1.734s-3.78 2.413-3.78 2.413c-1.646-5.966-3.071-6.704-3.747-5.797l-.052-.081s-.793 1.734-.793 1.734c-1.734 3.794-5.522 6.228-9.693 6.228h-2.381c-6.904 0-12.501-5.597-12.501-12.5v-8.334c0-6.903 5.597-12.5 12.5-12.5h2.382c4.171 0 7.959 2.434 9.693 6.227 0 0 .793 1.735.793 1.735l.011.023.033.071.054.106.022.046.017.031c1.283 2.423 3.662 2.178 3.662 2.178l.242-.081c1.066-.383 5.226-2.146 3.538-5.839l-.793-1.734c-3.09-6.76-9.84-11.096-17.272-11.096z"/><path d="m108.508 175c-11.22 0-20.834 10.975-20.834 25s9.614 25 20.834 25 20.833-10.975 20.833-25-9.613-25-20.833-25zm0 8.333c7.183 0 12.5 7.688 12.5 16.667s-5.317 16.667-12.5 16.667-12.5-7.688-12.5-16.667 5.317-16.667 12.5-16.667z"/><path d="m185.772 223.577 36.459-41.667c1.514-1.73 1.338-4.365-.392-5.879-1.731-1.514-4.365-1.339-5.88.392l-36.458 41.667c-1.514 1.73-1.339 4.365.392 5.879s4.365 1.339 5.879-.392z"/><path d="m222.231 218.09-36.459-41.667c-1.514-1.731-4.148-1.906-5.879-.392s-1.906 4.149-.392 5.879l36.458 41.667c1.515 1.731 4.149 1.906 5.88.392 1.73-1.514 1.906-4.149.392-5.879z"/></g></g></svg>