<!-- icon666.com - MILLIONS vector ICONS FREE --><svg clip-rule="evenodd" fill-rule="evenodd" stroke-linejoin="round" stroke-miterlimit="2" viewBox="0 0 267 267" xmlns="http://www.w3.org/2000/svg"><g><path d="m50 154.167c56.944 9.876 113.889 9.544 170.833 0v-79.167c0-.902-.292-1.779-.833-2.5l-37.5-50c-.787-1.049-2.022-1.667-3.333-1.667h-116.667c-3.315 0-6.495 1.317-8.839 3.661-2.344 2.345-3.661 5.524-3.661 8.839v95.834c0 6.188-1.451 11.433-1.451 15.614 0 5.78 1.451 9.386 1.451 9.386z" fill="#d8dfe3"/><path d="m25 143.365v89.968c0 3.315 1.317 6.495 3.661 8.839s5.524 3.661 8.839 3.661h191.667c3.315 0 6.494-1.317 8.839-3.661 2.344-2.344 3.661-5.524 3.661-8.839 0-15.966 0-50.7 0-66.666 0-3.315-1.317-6.495-3.661-8.839-2.345-2.344-5.524-3.661-8.839-3.661h-187.5c-5.316 0-16.667-10.802-16.667-10.802z" fill="#1fb35b"/><path d="m37.5 154.167c-3.804 0-6.581-1.543-8.625-3.443-1.923-1.788-3.875-4.939-3.875-9.057 0-2.643 1.317-6.495 3.661-8.839s5.524-3.661 8.839-3.661h12.5v25s1.071 0-12.5 0z" fill="#198043"/><path d="m129.167 137.5v-37.5h-54.167v33.333c0 2.302 1.865 4.167 4.167 4.167z" fill="#1fb35b"/><path d="m129.167 54.167h-50c-2.302 0-4.167 1.865-4.167 4.166v33.334h54.167z" fill="#1fb35b"/><path d="m191.667 100h-54.167v37.5h50c2.301 0 4.167-1.865 4.167-4.167z" fill="#1fb35b"/><path d="m179.167 54.167h-41.667v37.5h54.167v-16.667c0-2.3-1.867-4.167-4.167-4.167s-4.167-10.2-4.167-12.5c0-2.299-1.867-4.166-4.166-4.166z" fill="#1fb35b"/><g fill="#d8dfe3"><path d="m97.396 179.167v41.666c0 2.302 1.865 4.167 4.167 4.167h26.041c2.3 0 4.167-1.867 4.167-4.167 0-2.299-1.867-4.166-4.167-4.166h-21.875v-37.5c0-2.3-1.867-4.167-4.166-4.167-2.3 0-4.167 1.867-4.167 4.167z"/><path d="m180.74 223.577 36.458-41.667c1.515-1.73 1.339-4.365-.392-5.879-1.73-1.514-4.365-1.339-5.879.392l-36.459 41.667c-1.514 1.73-1.338 4.365.392 5.879 1.731 1.514 4.366 1.339 5.88-.392z"/><path d="m55.74 223.577 36.458-41.667c1.515-1.73 1.339-4.365-.392-5.879-1.73-1.514-4.365-1.339-5.879.392l-36.459 41.667c-1.514 1.73-1.338 4.365.392 5.879 1.731 1.514 4.366 1.339 5.88-.392z"/><path d="m217.198 218.09-36.458-41.667c-1.514-1.731-4.149-1.906-5.88-.392-1.73 1.514-1.906 4.149-.392 5.879l36.459 41.667c1.514 1.731 4.149 1.906 5.879.392 1.731-1.514 1.907-4.149.392-5.879z"/><path d="m92.198 218.09-36.458-41.667c-1.514-1.731-4.149-1.906-5.88-.392-1.73 1.514-1.906 4.149-.392 5.879l36.459 41.667c1.514 1.731 4.149 1.906 5.879.392 1.731-1.514 1.907-4.149.392-5.879z"/><path d="m133.855 210.443-.001-.001v2.066c0 3.313 1.316 6.491 3.659 8.833 2.343 2.343 5.52 3.659 8.833 3.659h9.391c3.313 0 6.491-1.316 8.833-3.659 2.343-2.342 3.659-5.52 3.659-8.833 0-.56 0-1.116 0-1.658 0-5.111-3.112-9.707-7.857-11.606l-15.151-6.06c-1.832-.733-3.034-2.507-3.034-4.48v-1.204c0-1.105.439-2.165 1.221-2.946.781-.782 1.841-1.221 2.946-1.221h9.375c1.105 0 2.165.439 2.946 1.221.782.781 1.221 1.841 1.221 2.946v2.058c0 1.176.52 2.24 1.042 2.78.814.923 1.982 1.412 3.124 1.412 2.029 0 4.167-1.566 4.167-4.192v-2.058c0-3.315-1.317-6.495-3.661-8.839s-5.524-3.661-8.839-3.661h-9.375c-3.315 0-6.495 1.317-8.839 3.661s-3.661 5.524-3.661 8.839v1.204c0 5.38 3.276 10.219 8.272 12.217l15.151 6.061c1.582.632 2.619 2.165 2.619 3.868v1.658c0 1.103-.438 2.161-1.218 2.941s-1.838 1.218-2.941 1.218h-9.391c-1.103 0-2.161-.438-2.941-1.218-.779-.78-1.217-1.838-1.217-2.94-.001-.001-.001-.001-.001-2.067 0-2.748-2.239-4.194-4.093-4.194-1.758 0-4.24 1.363-4.24 4.169 0 .026.001.026.001.026z"/></g><path d="m179.167 20.833v41.667c0 3.315 1.317 6.495 3.661 8.839s5.523 3.661 8.839 3.661h29.166c0-.902-.292-1.779-.833-2.5l-37.5-50c-.787-1.049-2.022-1.667-3.333-1.667z" fill="#afbdc7"/></g></svg>