<!-- icon666.com - MILLIONS vector ICONS FREE --><svg id="Capa_1" enable-background="new 0 0 512.072 512.072" viewBox="0 0 512.072 512.072" xmlns="http://www.w3.org/2000/svg"><path id="XMLID_1289_" d="m242.508 421.851-48.732 48.732c-41.986 41.986-110.302 41.986-152.289 0s-41.986-110.302 0-152.289l48.732-48.732c41.986-41.986 110.303-41.986 152.289 0s41.986 110.303 0 152.289zm-170.564-73.098c-25.192 25.192-25.192 66.182 0 91.373s66.182 25.192 91.373 0l48.732-48.732c25.192-25.192 25.192-66.182 0-91.373s-66.182-25.192-91.373 0z" fill="#9bc6ff" style="fill: rgb(240, 0, 0);"></path><path id="XMLID_2788_" d="m470.585 193.774-48.732 48.732c-41.986 41.986-110.303 41.986-152.289 0s-41.986-110.303 0-152.289l48.732-48.732c41.986-41.986 110.303-41.986 152.289 0s41.986 110.303 0 152.289zm-170.563-73.099c-25.192 25.192-25.192 66.182 0 91.373s66.182 25.192 91.373 0l48.732-48.732c25.192-25.192 25.192-66.182 0-91.373s-66.182-25.192-91.373 0z" fill="#9bc6ff" style="fill: rgb(240, 0, 0);"></path><path id="XMLID_772_" d="m298.895 180.628-118.265 118.265c-9.04 9.04-9.04 23.695 0 32.735 9.04 9.04 23.695 9.04 32.735 0l118.265-118.265c9.04-9.04 9.04-23.695 0-32.735-9.04-9.04-23.696-9.04-32.735 0z" fill="#79b2ff" style="fill: rgb(129, 14, 14);"></path><path id="XMLID_220_" d="m477.656 34.414c-45.885-45.885-120.545-45.885-166.431 0l-48.732 48.732c-19.072 19.073-31.08 44.365-33.81 71.217-2.414 23.744 2.489 47.765 13.819 68.515l-19.622 19.622c-20.75-11.33-44.77-16.233-68.515-13.819-26.853 2.73-52.145 14.738-71.217 33.81l-48.733 48.732c-45.885 45.885-45.885 120.545 0 166.431 22.436 22.436 52.595 34.417 83.316 34.417 14.052 0 28.227-2.51 41.823-7.672 5.163-1.96 7.759-7.735 5.799-12.898-1.961-5.164-7.736-7.76-12.898-5.799-35.975 13.659-76.757 4.95-103.896-22.189-38.087-38.087-38.087-100.06 0-138.146l48.732-48.733c29.216-29.216 74.044-36.499 110.737-19.281l-17.702 17.702c-26.862-9.145-56.39-2.436-76.721 17.895l-48.732 48.732c-14.072 14.073-21.823 32.81-21.823 52.758 0 19.949 7.75 38.685 21.823 52.757 14.073 14.073 32.809 21.823 52.758 21.823s38.685-7.75 52.757-21.823l48.733-48.732c20.259-20.259 26.989-49.651 17.987-76.438l17.723-17.723c17.038 36.634 9.695 81.386-19.395 110.476l-16.914 16.914c-3.905 3.905-3.905 10.237 0 14.143 1.953 1.952 4.512 2.929 7.071 2.929s5.119-.977 7.071-2.929l16.914-16.914c18.986-18.986 30.981-44.158 33.775-70.879 2.483-23.748-2.363-47.815-13.653-68.609l19.719-19.719c17.226 9.354 36.699 14.276 56.382 14.275 4.011 0 8.034-.205 12.045-.617 26.798-2.757 52.04-14.759 71.077-33.796l48.732-48.732c45.886-45.886 45.886-120.547.001-166.432zm-170.563 93.332 48.733-48.732c10.295-10.295 24.009-15.965 38.615-15.965s28.32 5.67 38.616 15.965c10.295 10.295 15.965 24.009 15.965 38.615s-5.67 28.32-15.965 38.616l-48.731 48.732c-12.068 12.068-29.133 17.568-45.651 15.485l.028-.028c12.924-12.924 12.924-33.953 0-46.877-6.261-6.26-14.585-9.708-23.439-9.708s-17.178 3.448-23.438 9.709l-.233.233c-2.335-16.68 3.143-33.688 15.5-46.045zm-1.127 59.953c2.483-2.483 5.784-3.851 9.296-3.851s6.813 1.368 9.296 3.851c5.126 5.126 5.126 13.466 0 18.592l-43.828 43.829c-.045.045-.091.089-.136.136l-10.906 10.906-12.4-24.784zm-99.673 136.858c-5.126 5.127-13.467 5.126-18.592 0-2.483-2.483-3.851-5.785-3.851-9.296s1.368-6.813 3.851-9.296l54.682-54.682 12.4 24.784zm-1.314 59.765-48.733 48.732c-10.295 10.295-24.009 15.965-38.615 15.965s-28.32-5.67-38.616-15.965c-10.295-10.295-15.965-24.009-15.965-38.615s5.67-28.32 15.965-38.616l48.731-48.732c12.129-12.129 29.357-17.629 45.98-15.438l-.169.169c-6.261 6.261-9.709 14.584-9.709 23.438s3.448 17.178 9.708 23.439c6.462 6.462 14.951 9.693 23.439 9.693s16.976-3.231 23.438-9.693l.089-.089c2.218 16.572-3.266 33.436-15.543 45.712zm258.535-197.62-48.733 48.732c-29.123 29.124-73.839 36.454-110.481 19.4l17.743-17.743c7.641 2.535 15.563 3.79 23.452 3.79 19.492 0 38.763-7.555 52.971-21.762l48.732-48.732c14.072-14.073 21.823-32.809 21.823-52.758s-7.75-38.685-21.823-52.757c-14.073-14.073-32.809-21.823-52.758-21.823s-38.685 7.75-52.758 21.823l-48.732 48.732c-20.328 20.328-27.039 49.859-17.895 76.721l-17.701 17.701c-17.218-36.693-9.935-81.522 19.281-110.737l48.732-48.732c38.086-38.087 100.06-38.087 138.146 0 38.088 38.086 38.088 100.058.001 138.145z" fill="#000000"></path><path id="XMLID_1325_" d="m420.578 379.548c-1.136-3.246-3.861-5.68-7.214-6.445-3.353-.764-6.863.247-9.295 2.678l-17.034 17.035-12.561-35.872c-1.826-5.213-7.532-7.959-12.743-6.133-5.213 1.825-7.958 7.53-6.133 12.743l17.819 50.889c1.136 3.246 3.861 5.68 7.214 6.445 3.354.767 6.864-.247 9.295-2.678l17.034-17.035 12.561 35.871c1.442 4.12 5.307 6.698 9.438 6.698 1.096 0 2.211-.182 3.305-.565 5.213-1.825 7.958-7.53 6.133-12.743z" fill="#000000"></path><path id="XMLID_1327_" d="m437.083 300.329h-40.085c-5.523 0-10 4.477-10 10s4.477 10 10 10h40.085c5.523 0 10-4.477 10-10s-4.477-10-10-10z" fill="#000000"></path><path id="XMLID_1328_" d="m310.33 386.996c-5.523 0-10 4.477-10 10v40.085c0 5.523 4.477 10 10 10s10-4.477 10-10v-40.085c0-5.523-4.477-10-10-10z" fill="#000000"></path><path id="XMLID_1510_" d="m75.212 92.737 35.871 12.561-17.035 17.034c-2.432 2.432-3.443 5.942-2.678 9.295s3.199 6.078 6.445 7.214l50.888 17.819c1.093.383 2.208.565 3.305.565 4.13 0 7.996-2.579 9.438-6.698 1.825-5.212-.92-10.917-6.133-12.743l-35.871-12.561 17.035-17.034c2.432-2.432 3.443-5.942 2.678-9.295s-3.199-6.078-6.445-7.214l-50.889-17.819c-5.213-1.825-10.917.921-12.743 6.133-1.825 5.213.921 10.918 6.134 12.743z" fill="#000000"></path><path id="XMLID_1538_" d="m201.929 125.26c5.523 0 10-4.477 10-10v-40.086c0-5.523-4.477-10-10-10s-10 4.477-10 10v40.086c0 5.523 4.477 10 10 10z" fill="#000000"></path><path id="XMLID_1540_" d="m75.176 211.927h40.086c5.523 0 10-4.477 10-10s-4.477-10-10-10h-40.086c-5.523 0-10 4.477-10 10s4.477 10 10 10z" fill="#000000"></path><path id="XMLID_1542_" d="m193.776 460.584c-2.63 0-5.21 1.07-7.07 2.93s-2.93 4.44-2.93 7.07 1.07 5.21 2.93 7.07 4.44 2.93 7.07 2.93 5.21-1.07 7.07-2.93 2.93-4.44 2.93-7.07-1.07-5.21-2.93-7.07-4.44-2.93-7.07-2.93z" fill="#000000"></path></svg>