<!-- icon666.com - MILLIONS vector ICONS FREE --><svg clip-rule="evenodd" fill-rule="evenodd" stroke-linecap="round" stroke-linejoin="round" stroke-miterlimit="1.5" viewBox="0 0 267 267" xmlns="http://www.w3.org/2000/svg"><g><path d="m50 154.167c56.944 9.876 113.889 9.544 170.833 0v-79.167c0-.902-.292-1.779-.833-2.5l-37.5-50c-.787-1.049-2.022-1.667-3.333-1.667h-116.667c-3.315 0-6.495 1.317-8.839 3.661-2.344 2.345-3.661 5.524-3.661 8.839v95.834c0 6.188-1.451 11.433-1.451 15.614 0 5.78 1.451 9.386 1.451 9.386z" fill="#d8dfe3"></path><path d="m25 143.365v89.968c0 3.315 1.317 6.495 3.661 8.839s5.524 3.661 8.839 3.661h191.667c3.315 0 6.494-1.317 8.839-3.661 2.344-2.344 3.661-5.524 3.661-8.839 0-15.966 0-50.7 0-66.666 0-3.315-1.317-6.495-3.661-8.839-2.345-2.344-5.524-3.661-8.839-3.661h-179.167c-5.316 0-25-10.802-25-10.802z" fill="#2d98db" style="fill: rgb(220, 46, 46);"></path><path d="m37.5 154.167c-3.804 0-6.581-1.543-8.625-3.443-1.923-1.788-3.875-4.939-3.875-9.057 0-2.643 1.317-6.495 3.661-8.839s5.524-3.661 8.839-3.661h12.5v25s1.071 0-12.5 0z" fill="#216896" style="fill: rgb(151, 33, 33);"></path><path d="m179.167 20.833v41.667c0 3.315 1.317 6.495 3.661 8.839s5.523 3.661 8.839 3.661h29.166c0-.902-.292-1.779-.833-2.5l-37.5-50c-.787-1.049-2.022-1.667-3.333-1.667z" fill="#afbdc7"></path><path d="m87.5 75h54.167" fill="none" stroke="#000" stroke-width="8.33"></path><path d="m87.5 100h95.833" fill="none" stroke="#000" stroke-width="8.33"></path><path d="m87.5 125h95.833" fill="none" stroke="#000" stroke-width="8.33"></path><g fill="#d8dfe3"><path d="m155.273 195.833c0-5.525-2.195-10.824-6.102-14.731s-9.206-6.102-14.732-6.102c-7.45 0-14.583 0-14.583 0-2.301 0-4.167 1.865-4.167 4.167v41.666c0 2.302 1.866 4.167 4.167 4.167h14.583c5.526 0 10.825-2.195 14.732-6.102s6.102-9.206 6.102-14.731zm-8.334 0v8.334c0 3.315-1.317 6.494-3.661 8.839-2.344 2.344-5.524 3.661-8.839 3.661h-10.416v-33.334h10.416c3.315 0 6.495 1.317 8.839 3.661 2.344 2.345 3.661 5.524 3.661 8.839z" fill="#d8dfe3"></path><path d="m193.771 175h-26.041c-2.301 0-4.167 1.865-4.167 4.167v41.666c0 2.3 1.867 4.167 4.167 4.167 2.299 0 4.166-1.867 4.166-4.167v-37.5h21.875c2.3 0 4.167-1.867 4.167-4.166 0-2.3-1.867-4.167-4.167-4.167z" fill="#d8dfe3"></path><path d="m77.062 206.771h18.186c7.215 0 13.064-5.849 13.064-13.064v-5.643c0-7.215-5.849-13.064-13.064-13.064-9.238 0-22.353 0-22.353 0-2.301 0-4.166 1.865-4.166 4.167v41.666c0 2.3 1.867 4.167 4.166 4.167 2.3 0 4.167-1.867 4.167-4.167zm0-8.334h18.186c2.613 0 4.73-2.117 4.731-4.73v-5.643c-.001-2.613-2.118-4.731-4.731-4.731h-18.186z" fill="#d8dfe3"></path><path d="m172.938 204.167h15.625c2.3 0 4.167-1.867 4.167-4.167s-1.867-4.167-4.167-4.167h-15.625c-2.3 0-4.167 1.867-4.167 4.167s1.867 4.167 4.167 4.167z" fill="#d8dfe3"></path></g></g></svg>