<!-- icon666.com - MILLIONS vector ICONS FREE --><svg clip-rule="evenodd" fill-rule="evenodd" stroke-linejoin="round" stroke-miterlimit="2" viewBox="0 0 267 267" xmlns="http://www.w3.org/2000/svg"><g><path d="m50 154.167c56.944 9.876 113.889 9.544 170.833 0v-79.167c0-.902-.292-1.779-.833-2.5l-37.5-50c-.787-1.049-2.022-1.667-3.333-1.667h-116.667c-3.315 0-6.495 1.317-8.839 3.661-2.344 2.345-3.661 5.524-3.661 8.839v95.834c0 6.188-1.451 11.433-1.451 15.614 0 5.78 1.451 9.386 1.451 9.386z" fill="#d8dfe3"/><path d="m25 143.365v89.968c0 3.315 1.317 6.495 3.661 8.839s5.524 3.661 8.839 3.661h191.667c3.315 0 6.494-1.317 8.839-3.661 2.344-2.344 3.661-5.524 3.661-8.839 0-15.966 0-50.7 0-66.666 0-3.315-1.317-6.495-3.661-8.839-2.345-2.344-5.524-3.661-8.839-3.661h-187.5c-5.316 0-16.667-10.802-16.667-10.802z" fill="#cd8923"/><path d="m37.5 154.167c-3.804 0-6.581-1.543-8.625-3.443-1.923-1.788-3.875-4.939-3.875-9.057 0-2.643 1.317-6.495 3.661-8.839s5.524-3.661 8.839-3.661h12.5v25s1.071 0-12.5 0z" fill="#8a6123"/><path d="m179.167 20.833v41.667c0 3.315 1.317 6.495 3.661 8.839s5.523 3.661 8.839 3.661h29.166c0-.902-.292-1.779-.833-2.5l-37.5-50c-.787-1.049-2.022-1.667-3.333-1.667z" fill="#afbdc7"/><g fill="#d8dfe3"><path d="m148.438 181.771v39.062c-.001 2.3 1.867 4.167 4.166 4.167 2.3 0 4.167-1.867 4.167-4.167v-39.062c0-2.3-1.867-4.167-4.167-4.167-2.299 0-4.167 1.867-4.166 4.167z"/><path d="m168.229 175h-31.25c-2.299 0-4.167 1.867-4.166 4.167 0 2.299 1.867 4.166 4.166 4.166h31.25c2.3 0 4.167-1.867 4.167-4.166 0-2.3-1.867-4.167-4.167-4.167z"/><path d="m52.604 206.771h18.186c7.215 0 13.064-5.849 13.064-13.064v-5.643c0-7.215-5.849-13.064-13.064-13.064-9.237 0-22.352 0-22.352 0-2.302 0-4.167 1.865-4.167 4.167v41.666c0 2.3 1.867 4.167 4.167 4.167 2.299 0 4.166-1.867 4.166-4.167zm0-8.334h18.186c2.613 0 4.731-2.117 4.731-4.73v-5.643c0-2.613-2.118-4.731-4.731-4.731h-18.186z"/><path d="m98.438 206.771h18.185c7.215 0 13.064-5.849 13.065-13.064v-5.643c-.001-7.215-5.85-13.064-13.065-13.064-9.237 0-22.352 0-22.352 0-2.301 0-4.167 1.865-4.167 4.167v41.666c0 2.3 1.867 4.167 4.167 4.167 2.299 0 4.167-1.867 4.167-4.167zm0-8.334h18.186c2.612 0 4.73-2.117 4.73-4.73v-5.643c0-2.613-2.118-4.731-4.731-4.731h-18.185z"/><path d="m184.907 223.577 36.458-41.667c1.514-1.73 1.339-4.365-.392-5.879s-4.365-1.339-5.88.392l-36.458 41.667c-1.514 1.73-1.339 4.365.392 5.879s4.365 1.339 5.88-.392z"/><path d="m221.365 218.09-36.458-41.667c-1.515-1.731-4.149-1.906-5.88-.392s-1.906 4.149-.392 5.879l36.458 41.667c1.515 1.731 4.149 1.906 5.88.392s1.906-4.149.392-5.879z"/></g><path d="m129.167 50.197c-22.061 2.099-39.342 20.703-39.342 43.312 0 24.013 19.495 43.509 43.508 43.509 11.925 0 22.736-4.808 30.597-12.588l-33.264-27.72c-.95-.792-1.499-1.965-1.499-3.201zm8.333 0v41.36l31.769 26.474c4.777-6.983 7.573-15.428 7.573-24.522 0-22.609-17.281-41.213-39.342-43.312z" fill="#cd8923"/></g></svg>