<!-- icon666.com - MILLIONS vector ICONS FREE --><svg enable-background="new 0 0 32 32" viewBox="0 0 32 32" xmlns="http://www.w3.org/2000/svg"><g id="Layer_3"><path d="m8.925 6.107.873-4.118 13.502 2.87 3.823 5.9-3.517 16.565z" fill="#a7a9ac"/><path d="m23.606 11.088v18.891h-18.766v-23.872h13.797z" fill="#fff"/><path d="m23.604 11.083h-4.967v-4.978z" fill="#fff"/><g><g><path d="m13.135 23.426h-2v-2.762c0-1.772 1.442-3.214 3.215-3.214.669 0 1.214-.544 1.214-1.214v-1.173c0-1.418-1.154-2.573-2.573-2.573h-.926c-1.418 0-2.572 1.154-2.572 2.573h-2c0-2.521 2.051-4.573 4.572-4.573h.926c2.521 0 4.573 2.051 4.573 4.573v1.173c0 1.772-1.441 3.214-3.214 3.214-.67 0-1.215.545-1.215 1.214z" fill="#bd2822"/></g></g><path d="m11.232 25.028h1.888v1.5h-1.888z" fill="#bd2822"/></g><g id="Layer_2"><g><g fill="#231f20"><path d="m27.562 10.503-3.823-5.9c-.072-.111-.187-.189-.316-.217l-13.503-2.87c-.127-.027-.264-.002-.376.07-.111.072-.19.185-.217.315l-.789 3.723h-3.68c-.276 0-.5.224-.5.5v23.872c0 .276.224.5.5.5h18.766c.276 0 .5-.224.5-.5v-2.601l3.507-16.514c.027-.131.002-.266-.069-.378zm-22.204 18.992v-22.871h12.797v4.476c0 .276.224.5.5.5h4.469v17.896h-17.766zm17.056-18.895h-3.259v-3.268zm1.71 11.978v-11.474c0-.067-.014-.133-.04-.194-.027-.066-.068-.124-.119-.172l-4.949-4.961c-.091-.095-.218-.156-.36-.156-.004 0-.008.002-.012.002h-9.083l.642-3.025 12.81 2.723 3.598 5.553z"/><path d="m13.009 10.007h-.926c-2.797 0-5.072 2.275-5.072 5.073 0 .276.224.5.5.5h2c.276 0 .5-.224.5-.5 0-1.143.93-2.073 2.072-2.073h.926c1.144 0 2.073.93 2.073 2.073v1.173c0 .394-.32.714-.714.714-2.049 0-3.715 1.666-3.715 3.714v2.762c0 .276.224.5.5.5h2c.276 0 .5-.224.5-.5v-2.762c0-.394.32-.714.715-.714 2.048 0 3.714-1.666 3.714-3.714v-1.173c0-2.798-2.275-5.073-5.073-5.073zm4.073 6.245c0 1.497-1.218 2.714-2.714 2.714-.945 0-1.715.769-1.715 1.714v2.262h-1v-2.262c0-1.497 1.218-2.714 2.715-2.714.945 0 1.714-.769 1.714-1.714v-1.172c0-1.694-1.379-3.073-3.073-3.073h-.926c-1.523 0-2.792 1.115-3.031 2.573h-1.011c.247-2.011 1.966-3.573 4.042-3.573h.926c2.246 0 4.073 1.827 4.073 4.073z"/><path d="m13.139 24.544h-1.889c-.276 0-.5.224-.5.5v1.5c0 .276.224.5.5.5h1.889c.276 0 .5-.224.5-.5v-1.5c0-.276-.224-.5-.5-.5zm-.5 1.5h-.889v-.5h.889z"/></g></g></g></svg>