<!-- icon666.com - MILLIONS vector ICONS FREE --><svg viewBox="0 0 32 32" xmlns="http://www.w3.org/2000/svg"><g id="Layer_2" data-name="Layer 2"><path d="m28 3h-16a3 3 0 0 0 0 6h16a3 3 0 0 0 0-6zm0 4h-16a1 1 0 0 1 0-2h16a1 1 0 0 1 0 2z" fill="#000000" style="fill: rgb(38, 213, 140);"></path><path d="m4 3a3 3 0 1 0 3 3 3 3 0 0 0 -3-3zm0 4a1 1 0 1 1 1-1 1 1 0 0 1 -1 1z" fill="#000000" style="fill: rgb(38, 213, 140);"></path><path d="m28 13h-16a3 3 0 0 0 0 6h16a3 3 0 0 0 0-6zm0 4h-16a1 1 0 0 1 0-2h16a1 1 0 0 1 0 2z" fill="#000000" style="fill: rgb(38, 213, 140);"></path><path d="m4 13a3 3 0 1 0 3 3 3 3 0 0 0 -3-3zm0 4a1 1 0 1 1 1-1 1 1 0 0 1 -1 1z" fill="#000000" style="fill: rgb(38, 213, 140);"></path><path d="m28 23h-16a3 3 0 0 0 0 6h16a3 3 0 0 0 0-6zm0 4h-16a1 1 0 0 1 0-2h16a1 1 0 0 1 0 2z" fill="#000000" style="fill: rgb(38, 213, 140);"></path><path d="m4 23a3 3 0 1 0 3 3 3 3 0 0 0 -3-3zm0 4a1 1 0 1 1 1-1 1 1 0 0 1 -1 1z" fill="#000000" style="fill: rgb(38, 213, 140);"></path></g></svg>