<svg id="Filled" viewBox="0 0 512 512" xmlns="http://www.w3.org/2000/svg">
    <defs>
        <!-- Definición del gradiente de color con múltiples colores -->
        <linearGradient id="colorGradient" x1="0%" y1="0%" x2="100%" y2="100%">
            <stop offset="0%" style="stop-color:#ff0000; stop-opacity:1">
                <animate attributeName="stop-color" values="#ff0000; #ff00ff; #00ffff; #00ff00; #ff0000" dur="8s" repeatCount="indefinite" />
            </stop>
            <stop offset="100%" style="stop-color:#00ff00; stop-opacity:1">
                <animate attributeName="stop-color" values="#00ff00; #ff0000; #ff00ff; #00ffff; #00ff00" dur="8s" repeatCount="indefinite" />
            </stop>
        </linearGradient>
    </defs>
    <g fill="url(#colorGradient)">
        <path d="m224 480h-176c-8.837 0-16-7.163-16-16v-176c0-8.837 7.163-16 16-16h176c8.837 0 16 7.163 16 16v176c0 8.837-7.163 16-16 16z"/>
        <path d="m464 240h-176c-8.837 0-16-7.163-16-16v-176c0-8.837 7.163-16 16-16h176c8.837 0 16 7.163 16 16v176c0 8.837-7.163 16-16 16z"/>
        <path d="m224 240h-176c-8.837 0-16-7.163-16-16v-176c0-8.837 7.163-16 16-16h176c8.837 0 16 7.163 16 16v176c0 8.837-7.163 16-16 16z"/>
    </g>
    <path d="m480 398.286v-44.571h-17.665c-2.217-8.614-5.691-16.723-10.212-24.122l13.02-13.021-29.714-29.714-13.021 13.021c-7.399-4.521-15.508-7.995-24.122-10.212v-17.667h-44.571v17.666c-8.614 2.217-16.723 5.691-24.122 10.212l-13.02-13.021-29.714 29.714 13.02 13.021c-4.521 7.4-7.995 15.508-10.212 24.122h-17.667v44.571h17.665c2.217 8.614 5.691 16.723 10.212 24.122l-13.02 13.021 29.714 29.714 13.02-13.021c7.4 4.521 15.508 7.995 24.122 10.212v17.667h44.571v-17.665c8.614-2.217 16.723-5.691 24.122-10.212l13.021 13.021 29.714-29.714-13.02-13.021c4.521-7.399 7.995-15.508 10.212-24.122h17.667zm-104 17.714c-22.091 0-40-17.909-40-40s17.909-40 40-40 40 17.909 40 40-17.909 40-40 40z" fill="#3397e8"/>
    <path d="m376 320c-30.928 0-56 25.072-56 56s25.072 56 56 56 56-25.072 56-56-25.072-56-56-56zm0 80c-13.255 0-24-10.745-24-24s10.745-24 24-24 24 10.745 24 24-10.745 24-24 24z" fill="#2978b8"/>
    <path d="m398.286 488h-44.572c-4.418 0-8-3.581-8-8v-11.674c-5.084-1.667-10.021-3.754-14.768-6.244l-8.718 8.718c-1.501 1.5-3.535 2.343-5.657 2.343-2.122 0-4.156-.843-5.657-2.343l-29.714-29.715c-3.124-3.124-3.124-8.189 0-11.313l8.718-8.718c-2.49-4.747-4.577-9.684-6.244-14.769h-11.674c-4.418 0-8-3.581-8-8v-44.571c0-4.418 3.582-8 8-8h11.674c1.667-5.085 3.754-10.021 6.244-14.769l-8.718-8.718c-3.124-3.124-3.124-8.189 0-11.313l29.714-29.714c1.501-1.501 3.535-2.343 5.657-2.343s4.156.843 5.657 2.343l8.718 8.718c4.747-2.49 9.684-4.577 14.768-6.244v-11.674c0-4.418 3.582-8 8-8h44.572c4.418 0 8 3.582 8 8v11.674c5.084 1.667 10.021 3.754 14.768 6.244l8.718-8.718c1.501-1.501 3.535-2.343 5.657-2.343 2.122 0 4.156.843 5.657 2.343l29.714 29.714c3.124 3.124 3.124 8.189 0 11.313l-8.718 8.718c2.49 4.747 4.577 9.684 6.244 14.769h11.674c4.418 0 8 3.582 8 8v44.571c0 4.419-3.582 8-8 8h-11.674c-1.667 5.085-3.754 10.022-6.244 14.769l8.718 8.718c3.124 3.124 3.124 8.189 0 11.313l-29.714 29.715c-1.501 1.5-3.535 2.343-5.657 2.343s-4.156-.843-5.657-2.343l-8.718-8.718c-4.747 2.49-9.684 4.577-14.768 6.244v11.674c0 4.419-3.582 8-8 8zm-36.572-16h28.572v-9.665c0-3.65 2.471-6.837 6.006-7.748 7.726-1.989 15.109-5.115 21.945-9.291 3.153-1.926 7.216-1.442 9.828 1.17l7.363 7.363 18.4-18.4-7.364-7.364c-2.612-2.613-3.096-6.675-1.169-9.828 4.176-6.835 7.302-14.218 9.29-21.945.91-3.535 4.098-6.006 7.748-6.006h9.667v-28.571h-9.666c-3.65 0-6.838-2.471-7.748-6.006-1.988-7.727-5.114-15.11-9.29-21.945-1.927-3.153-1.443-7.215 1.169-9.828l7.364-7.364-18.4-18.4-7.363 7.363c-2.612 2.612-6.675 3.098-9.828 1.17-6.836-4.176-14.22-7.302-21.945-9.291-3.535-.91-6.006-4.097-6.006-7.748v-9.666h-28.572v9.666c0 3.65-2.471 6.837-6.006 7.748-7.726 1.989-15.109 5.115-21.945 9.291-3.153 1.926-7.216 1.442-9.828-1.17l-7.363-7.363-18.4 18.4 7.364 7.364c2.612 2.613 3.096 6.675 1.169 9.828-4.176 6.835-7.302 14.218-9.29 21.945-.91 3.535-4.098 6.006-7.748 6.006h-9.668v28.571h9.666c3.65 0 6.838 2.471 7.748 6.006 1.988 7.727 5.114 15.11 9.29 21.945 1.927 3.153 1.443 7.215-1.169 9.828l-7.364 7.364 18.4 18.4 7.363-7.363c2.612-2.612 6.675-3.097 9.828-1.17 6.836 4.176 14.22 7.302 21.945 9.291 3.535.91 6.006 4.097 6.006 7.748v9.665zm14.286-32c-35.29 0-64-28.71-64-64s28.71-64 64-64 64 28.71 64 64-28.71 64-64 64zm0-112c-26.468 0-48 21.533-48 48s21.532 48 48 48 48-21.533 48-48-21.532-48-48-48zm0 80c-17.645 0-32-14.355-32-32s14.355-32 32-32 32 14.355 32 32-14.355 32-32 32zm0-48c-8.822 0-16 7.178-16 16s7.178 16 16 16 16-7.178 16-16-7.178-16-16-16zm-152 128h-176c-13.233 0-24-10.767-24-24v-176c0-13.233 10.767-24 24-24h176c13.233 0 24 10.767 24 24v176c0 13.233-10.767 24-24 24zm-176-208c-4.411 0-8 3.589-8 8v176c0 4.411 3.589 8 8 8h176c4.411 0 8-3.589 8-8v-176c0-4.411-3.589-8-8-8zm416-32h-176c-13.233 0-24-10.767-24-24v-176c0-13.233 10.767-24 24-24h176c13.233 0 24 10.767 24 24v176c0 13.233-10.767 24-24 24zm-176-208c-4.411 0-8 3.589-8 8v176c0 4.411 3.589 8 8 8h176c4.411 0 8-3.589 8-8v-176c0-4.411-3.589-8-8-8zm-64 208h-176c-13.233 0-24-10.767-24-24v-176c0-13.233 10.767-24 24-24h176c13.233 0 24 10.767 24 24v176c0 13.233-10.767 24-24 24zm-176-208c-4.411 0-8 3.589-8 8v176c0 4.411 3.589 8 8 8h176c4.411 0 8-3.589 8-8v-176c0-4.411-3.589-8-8-8z"/>
</svg>
