<!-- icon666.com - MILLIONS vector ICONS FREE --><svg id="Layer_1" viewBox="0 0 512 512" xmlns="http://www.w3.org/2000/svg" data-name="Layer 1"><g fill-rule="evenodd"><path d="m131.359 256.035a124.561 124.561 0 1 1 36.511 88.134 124.233 124.233 0 0 1 -36.511-88.134zm195.72 63.223a95.113 95.113 0 1 0 -142.148 0 71.2 71.2 0 0 1 20.6-43.792 72.524 72.524 0 0 1 23.869-15.788 45 45 0 0 1 -4.729-4.072 44.324 44.324 0 1 1 62.673 0 45.1 45.1 0 0 1 -4.729 4.072 72.451 72.451 0 0 1 23.874 15.788 71.122 71.122 0 0 1 20.59 43.792z" fill="#00ffb0" style="fill: rgb(43, 255, 0);"></path><path d="m303.347 5.858 10.423 64.152a175.31 175.31 0 0 1 16.738 6.072c5.493 2.286 10.88 4.786 16.159 7.572l52.243-37.648a7.045 7.045 0 0 1 9.508.357l57.208 57.223h-.014a6.977 6.977 0 0 1 .729 9l-37.991 52.722c2.793 5.287 5.329 10.716 7.608 16.217 2.272 5.429 4.3 11.073 6.065 16.716l64.1 10.43a7.01 7.01 0 0 1 5.857 6.858v80.583a6.955 6.955 0 0 1 -5.857 7.215l-64.1 10.43c-1.765 5.715-3.793 11.287-6.065 16.788-2.279 5.429-4.815 10.859-7.608 16.145l37.641 52.221a6.978 6.978 0 0 1 -.365 9.5l-57.208 57.222h-.007a7.037 7.037 0 0 1 -9.008.714l-52.736-38c-5.279 2.786-10.68 5.358-16.159 7.644-5.48 2.215-11.066 4.286-16.738 6l-10.423 64.149h-.007a7 7 0 0 1 -6.88 5.86h-80.554a7.051 7.051 0 0 1 -7.236-5.858l-10.423-64.151c-5.679-1.715-11.266-3.786-16.745-6-5.487-2.286-10.873-4.858-16.16-7.644l-52.242 37.645a7.045 7.045 0 0 1 -9.509-.357l-57.2-57.222h.009a6.977 6.977 0 0 1 -.729-9l37.989-52.723c-2.779-5.286-5.329-10.716-7.6-16.216q-3.419-8.145-6.06-16.717l-63.608-10.357a6.952 6.952 0 0 1 -6.379-6.93v-80.94h.014a6.968 6.968 0 0 1 5.865-6.858l64.108-10.431c1.757-5.643 3.786-11.287 6.058-16.716 2.279-5.5 4.822-10.93 7.6-16.217l-37.632-52.221a6.993 6.993 0 0 1 .364-9.5l57.2-57.223.022.072a6.958 6.958 0 0 1 9.008-.786l52.729 38c5.279-2.786 10.665-5.286 16.159-7.572a175.906 175.906 0 0 1 16.738-6.072l10.33-63.652a7 7 0 0 1 6.98-6.354h80.9a6.974 6.974 0 0 1 6.887 5.858zm40.753 162.094a124.571 124.571 0 1 0 36.484 88.083 124.071 124.071 0 0 0 -36.484-88.083zm-88.09-50.507a138.549 138.549 0 1 0 97.99 40.576 138.158 138.158 0 0 0 -97.992-40.576zm0 29.432a109.185 109.185 0 1 0 77.16 32 108.646 108.646 0 0 0 -77.16-32zm57.079 185.24c.05-.572.1-1.072.15-1.715.1-1.357.157-2.857.157-4.429a57.39 57.39 0 0 0 -114.779 0c0 1.572.049 3.072.157 4.429.049.643.1 1.143.157 1.715a95.229 95.229 0 0 0 114.158 0zm-35.64-129.3a30.3 30.3 0 1 0 8.879 21.431 30.172 30.172 0 0 0 -8.879-21.431zm-21.439-22.861a44.312 44.312 0 0 1 31.333 75.653 45.1 45.1 0 0 1 -4.729 4.072 72.451 72.451 0 0 1 23.874 15.788 71.122 71.122 0 0 1 20.589 43.792 95.113 95.113 0 1 0 -142.148 0 71.2 71.2 0 0 1 20.6-43.792 72.524 72.524 0 0 1 23.871-15.791 45 45 0 0 1 -4.729-4.072 44.292 44.292 0 0 1 31.34-75.653zm44.606-103.8-10.085-62.156h-69.045l-10.159 62.58a7.005 7.005 0 0 1 -4.979 5.572 192.656 192.656 0 0 0 -19.481 6.787 180.71 180.71 0 0 0 -18.66 9.073 6.946 6.946 0 0 1 -7.658-.644l-51.249-36.86-48.822 48.792 37.062 51.436a7.039 7.039 0 0 1 .436 7.5 174.232 174.232 0 0 0 -9.008 18.646 177.338 177.338 0 0 0 -6.787 19.5 7.058 7.058 0 0 1 -6.051 5l-62.122 10.077v69.08l62.558 10.145a6.9 6.9 0 0 1 5.6 5h.014a181.338 181.338 0 0 0 6.78 19.431 183.72 183.72 0 0 0 9.015 18.717 6.931 6.931 0 0 1 -.578 7.643l-36.919 51.225 48.822 48.862 51.45-37.077a6.907 6.907 0 0 1 7.458-.429 196.159 196.159 0 0 0 18.653 9 192.78 192.78 0 0 0 19.488 6.786 6.986 6.986 0 0 1 5.051 6.073l10.1 62.151h69.017l10.173-62.651a7.007 7.007 0 0 1 4.979-5.573 192.223 192.223 0 0 0 19.481-6.786 195.2 195.2 0 0 0 18.645-9 6.962 6.962 0 0 1 7.673.572l51.25 36.934 48.821-48.862-37.07-51.436a6.915 6.915 0 0 1 -.428-7.429 187.064 187.064 0 0 0 9.008-18.646 184.546 184.546 0 0 0 6.794-19.5 7.016 7.016 0 0 1 6.043-5.073l62.152-10.073v-69.013l-62.587-10.215a6.9 6.9 0 0 1 -5.6-5l-.007.071a179.049 179.049 0 0 0 -6.794-19.5 173.1 173.1 0 0 0 -9.008-18.646 7.052 7.052 0 0 1 .578-7.715l36.92-51.221-48.822-48.796-51.45 37.005a7.064 7.064 0 0 1 -7.458.5 180.116 180.116 0 0 0 -18.66-9.073 192.227 192.227 0 0 0 -19.481-6.787 6.9 6.9 0 0 1 -5.051-6z" fill="#143565" style="fill: rgb(0, 0, 0);"></path></g></svg>