<!-- icon666.com - MILLIONS vector ICONS FREE --><svg id="Capa_1" enable-background="new 0 0 511.615 511.615" viewBox="0 0 511.615 511.615" xmlns="http://www.w3.org/2000/svg"><g><path d="m262.551 86.361h54.819v183.079h-54.819z" fill="#e19974"/><g><g><path d="m385.656 307.51c14.525 0 26.3 11.775 26.3 26.3s-11.775 26.3-26.3 26.3h-101.317v-52.6z" fill="#ffcebf"/></g><path d="m375.013 307.51c14.525 0 26.3-11.775 26.3-26.299 0-14.525-11.775-26.3-26.3-26.3h-67.966v52.599z" fill="#ffcebf"/><g><g id="XMLID_385_"><g><path d="m294.321 335.899v125.91h-32.72-58.55c-28.69 0-53.17-18.03-62.72-43.38h-113.507c-2.829 0-5.123-2.294-5.123-5.123v-83.377-55.377c0-2.829 2.294-5.123 5.123-5.123h110.687c3.15 0 6.171-1.251 8.399-3.479l41.525-41.525c10.332-10.332 24.345-16.136 38.956-16.136h67.93z" fill="#ffdfcf"/></g></g></g><path d="m203.051 399.57c-22.235 0-41.941-10.829-54.128-27.502-7.39-10.109-19.335-15.878-31.857-15.878h-90.242c-2.829 0-5.123-2.294-5.123-5.123v62.239c0 2.829 2.294 5.123 5.123 5.123h113.507c9.55 25.35 34.03 43.38 62.72 43.38h58.55 32.72v-62.239h-32.72z" fill="#ffcebf"/><path d="m262.551 481.06c0 12.733 10.322 23.055 23.055 23.055h8.709c12.733 0 23.055-10.322 23.055-23.055v-13.756-183.105h-54.819z" fill="#e19974"/><path d="m262.551 347.518c4.458-1.21 8.738-2.854 12.793-4.885 1.548 5.957 4.209 11.554 7.836 16.578-5.567 7.642-8.864 17.04-8.864 27.198 0 9.763 3.045 18.824 8.225 26.299-5.179 7.476-8.225 16.537-8.225 26.3 0 24.312 18.839 44.292 42.684 46.145.238-1.329.369-2.695.369-4.093v-13.756-183.105h-54.819v63.319z" fill="#dc8758"/><path d="m293.731 280.609c0 27.24-22.09 49.32-49.33 49.32h-29.38-193.32v-54.58c0-3.27 2.651-5.92 5.92-5.92h109.89c3.15 0 6.171-1.251 8.399-3.479l41.525-41.525c10.332-10.332 24.345-16.136 38.956-16.136h86.87c22.55 0 40.83 18.28 40.83 40.83v80.206c0 16.511-13.008 30.422-29.515 30.777-8.604.185-16.4-3.228-22.005-8.833-5.46-5.46-8.84-13.01-8.84-21.34z" fill="#ffdfcf"/><path d="m262.551 86.361h54.819v81.964h-54.819z" fill="#dc8758"/><path d="m478.324 143.326h-374.727c-6.401 0-11.591-5.189-11.591-11.591v-112.644c0-6.401 5.189-11.591 11.591-11.591h374.728c6.401 0 11.591 5.189 11.591 11.591v112.644c-.001 6.401-5.19 11.591-11.592 11.591z" fill="#faf7f7"/><path d="m213.001 131.735v-112.644c0-6.401 5.189-11.591 11.591-11.591h-120.995c-6.402 0-11.591 5.189-11.591 11.591v112.644c0 6.401 5.189 11.591 11.591 11.591h120.995c-6.401-.001-11.591-5.19-11.591-11.591z" fill="#f3eae6"/></g><path d="m320.616 465.308h37.967c14.525 0 26.3-11.775 26.3-26.3 0-14.525-11.775-26.3-26.3-26.3h-37.967c-14.525 0-26.3 11.775-26.3 26.3 0 14.525 11.775 26.3 26.3 26.3z" fill="#ffdfcf"/><path d="m320.616 412.709h45.657c14.525 0 26.3-11.775 26.3-26.3 0-14.525-11.775-26.3-26.3-26.3h-45.657c-14.525 0-26.3 11.775-26.3 26.3 0 14.525 11.775 26.3 26.3 26.3z" fill="#ffdfcf"/><path d="m313.931 458.623c0-14.525 11.775-26.3 26.3-26.3h37.967c2.062 0 4.075.251 6.001.7-2.713-11.637-13.153-20.315-25.616-20.315h-37.967c-14.525 0-26.3 11.775-26.3 26.3 0 12.463 8.675 22.902 20.311 25.615-.449-1.925-.696-3.938-.696-6z" fill="#ffcebf"/><path d="m313.931 406.024c0-14.525 11.775-26.3 26.3-26.3h45.656c2.062 0 4.076.253 6.001.702-2.713-11.637-13.153-20.316-25.616-20.316h-45.657c-14.525 0-26.3 11.775-26.3 26.3 0 12.463 8.676 22.902 20.313 25.615-.448-1.926-.697-3.939-.697-6.001z" fill="#ffcebf"/><g><path d="m197.608 454.048c-14.72-1.334-28.356-8.088-38.398-19.02-10.102-10.997-15.665-25.283-15.665-40.228 0-4.142-3.357-7.5-7.5-7.5s-7.5 3.358-7.5 7.5c0 5.475.613 10.875 1.774 16.126h-108.619c-4.143 0-7.5 3.358-7.5 7.5s3.357 7.5 7.5 7.5h113.662c3.211 6.976 7.5 13.478 12.802 19.249 12.57 13.684 29.648 22.14 48.091 23.811.23.021.459.031.686.031 3.836 0 7.107-2.929 7.461-6.824.372-4.124-2.669-7.771-6.794-8.145z"/><path d="m478.324 0h-374.727c-10.527 0-19.091 8.564-19.091 19.091v112.644c0 10.527 8.564 19.091 19.091 19.091h63.25c4.143 0 7.5-3.358 7.5-7.5s-3.357-7.5-7.5-7.5h-63.25c-2.256 0-4.091-1.835-4.091-4.091v-112.644c0-2.256 1.835-4.091 4.091-4.091h374.728c2.256 0 4.091 1.835 4.091 4.091v112.644c0 2.256-1.835 4.091-4.091 4.091h-279.516c-4.143 0-7.5 3.358-7.5 7.5s3.357 7.5 7.5 7.5h56.242v49.959h-28.656c-16.719 0-32.437 6.511-44.26 18.333l-41.531 41.532c-.827.827-1.927 1.282-3.097 1.282h-115.807c-4.143 0-7.5 3.358-7.5 7.5s3.357 7.5 7.5 7.5h115.807c5.178 0 10.044-2.016 13.704-5.676l41.53-41.531c8.99-8.989 20.941-13.939 33.653-13.939h86.863c18.379 0 33.332 14.953 33.332 33.332v80.812c0 12.506-10.175 22.681-22.682 22.681s-22.682-10.175-22.682-22.681v-66.604c0-4.142-3.357-7.5-7.5-7.5s-7.5 3.358-7.5 7.5v17.282c0 23.061-18.762 41.823-41.822 41.823h-29.381c-4.143 0-7.5 3.358-7.5 7.5s3.357 7.5 7.5 7.5h29.381c3.64 0 7.195-.358 10.646-1.015v34.014c0 4.142 3.357 7.5 7.5 7.5s7.5-3.358 7.5-7.5v-39.142c6.106-3.103 11.583-7.267 16.176-12.262v10.905c0 11.889 5.541 22.502 14.168 29.413-8.238 6.17-13.579 16.007-13.579 27.068 0 10.615 4.923 20.098 12.602 26.299-7.678 6.201-12.602 15.684-12.602 26.3 0 14.881 9.67 27.537 23.054 32.038v10.014c0 8.577-6.978 15.555-15.555 15.555h-8.71c-8.577 0-15.555-6.978-15.555-15.555v-78.67c0-4.142-3.357-7.5-7.5-7.5s-7.5 3.358-7.5 7.5v51.918h-26.157c-4.143 0-7.5 3.358-7.5 7.5s3.357 7.5 7.5 7.5h26.157v11.752c0 16.848 13.707 30.555 30.555 30.555h8.71c16.848 0 30.555-13.707 30.555-30.555v-8.253h33.713c18.637 0 33.799-15.162 33.799-33.799 0-9.016-3.555-17.212-9.329-23.279 10.157-5.836 17.018-16.789 17.018-29.321 0-7.376-2.382-14.203-6.408-19.766 14.784-3.606 25.792-16.954 25.792-32.833 0-13.333-7.762-24.885-19.004-30.382 5.199-5.946 8.36-13.717 8.36-22.218 0-18.637-15.162-33.799-33.8-33.799h-13.466c-.765-21.893-16.15-40.124-36.677-45.207v-51.379h153.454c10.526 0 19.091-8.564 19.091-19.091v-112.645c.004-10.527-8.56-19.091-19.087-19.091zm-119.741 457.808h-37.968c-10.365 0-18.799-8.433-18.799-18.799s8.434-18.8 18.799-18.8h37.968c10.365 0 18.799 8.434 18.799 18.8s-8.434 18.799-18.799 18.799zm7.689-52.6h-45.657c-10.365 0-18.799-8.433-18.799-18.799s8.434-18.8 18.799-18.8h45.657c10.365 0 18.799 8.434 18.799 18.8s-8.433 18.799-18.799 18.799zm19.384-52.599h-31.68c4.775-6.315 7.614-14.172 7.614-22.681v-14.918h24.066c10.366 0 18.8 8.434 18.8 18.8s-8.434 18.799-18.8 18.799zm8.157-71.398c0 10.366-8.434 18.799-18.8 18.799h-13.423v-37.599h13.423c10.366 0 18.8 8.434 18.8 18.8zm-83.943-80.426h-39.819v-49.959h39.819z"/><path d="m165.024 35.034c-4.143 0-7.5 3.358-7.5 7.5v66.739c0 4.142 3.357 7.5 7.5 7.5s7.5-3.358 7.5-7.5v-25.87h20.606v25.87c0 4.142 3.357 7.5 7.5 7.5s7.5-3.358 7.5-7.5v-66.739c0-4.142-3.357-7.5-7.5-7.5s-7.5 3.358-7.5 7.5v25.87h-20.606v-25.87c0-4.142-3.357-7.5-7.5-7.5z"/><path d="m258.847 50.034c4.143 0 7.5-3.358 7.5-7.5s-3.357-7.5-7.5-7.5h-28.672c-4.143 0-7.5 3.358-7.5 7.5v66.739c0 4.142 3.357 7.5 7.5 7.5h28.672c4.143 0 7.5-3.358 7.5-7.5s-3.357-7.5-7.5-7.5h-21.172v-18.37h13.398c4.143 0 7.5-3.358 7.5-7.5s-3.357-7.5-7.5-7.5h-13.398v-18.37h21.172z"/><path d="m288.272 35.034c-4.143 0-7.5 3.358-7.5 7.5v66.739c0 4.142 3.357 7.5 7.5 7.5h27.939c4.143 0 7.5-3.358 7.5-7.5s-3.357-7.5-7.5-7.5h-20.439v-59.239c0-4.142-3.357-7.5-7.5-7.5z"/><path d="m350.139 109.273v-20.36h8.667c14.855 0 26.94-12.085 26.94-26.94s-12.085-26.939-26.94-26.939h-13.207c-5.768 0-10.46 4.692-10.46 10.459v35.92 27.86c0 4.142 3.357 7.5 7.5 7.5s7.5-3.358 7.5-7.5zm0-59.239h8.667c6.584 0 11.94 5.356 11.94 11.939s-5.356 11.94-11.94 11.94h-8.667z"/><path d="m413.062 109.273c0 4.142 3.357 7.5 7.5 7.5s7.5-3.358 7.5-7.5v-7.231c0-4.142-3.357-7.5-7.5-7.5s-7.5 3.358-7.5 7.5z"/><path d="m420.562 80.749c4.143 0 7.5-3.358 7.5-7.5v-30.715c0-4.142-3.357-7.5-7.5-7.5s-7.5 3.358-7.5 7.5v30.715c0 4.142 3.357 7.5 7.5 7.5z"/></g></g></svg>