<!-- icon666.com - MILLIONS vector ICONS FREE --><svg viewBox="0 0 500 500" xmlns="http://www.w3.org/2000/svg" xmlns:xlink="http://www.w3.org/1999/xlink"><linearGradient id="linear-gradient" gradientUnits="userSpaceOnUse" x1="155.179" x2="155.179" y1="465.331" y2="41.318"><stop offset="0" stop-color="#9dd6f4"/><stop offset=".204" stop-color="#78bae9"/><stop offset=".407" stop-color="#5ba4e1"/><stop offset=".609" stop-color="#4794db"/><stop offset=".808" stop-color="#3a8ad7"/><stop offset="1" stop-color="#3687d6"/></linearGradient><linearGradient id="linear-gradient-2" gradientUnits="userSpaceOnUse" x1="208.165" x2="208.165" y1="421.81" y2="131.51"><stop offset="0" stop-color="#8ac7ee"/><stop offset=".683" stop-color="#447fb7"/><stop offset="1" stop-color="#2963a2"/></linearGradient><linearGradient id="linear-gradient-3" gradientUnits="userSpaceOnUse" x1="387.473" x2="387.473" y1="207.414" y2="128.105"><stop offset=".013" stop-color="#657283"/><stop offset=".02" stop-color="#667385"/><stop offset=".153" stop-color="#74869f"/><stop offset=".299" stop-color="#7f94b3"/><stop offset=".465" stop-color="#879ec1"/><stop offset=".666" stop-color="#8ca4c9"/><stop offset="1" stop-color="#8da6cc"/></linearGradient><linearGradient id="linear-gradient-4" x1="387.473" x2="387.473" xlink:href="#linear-gradient-3" y1="167.074" y2="87.765"/><linearGradient id="linear-gradient-5" gradientUnits="userSpaceOnUse" x1="275.191" x2="275.191" y1="395.149" y2="104.851"><stop offset="0" stop-color="#009d87"/><stop offset=".079" stop-color="#08b08d"/><stop offset=".183" stop-color="#0fc192"/><stop offset=".313" stop-color="#13cc95"/><stop offset=".495" stop-color="#16d397"/><stop offset="1" stop-color="#17d598"/></linearGradient><linearGradient id="linear-gradient-6" gradientUnits="userSpaceOnUse" x1="383.69" x2="383.69" y1="421.587" y2="208.186"><stop offset="0" stop-color="#fdda47"/><stop offset=".478" stop-color="#faeacb"/></linearGradient><linearGradient id="linear-gradient-7" gradientUnits="userSpaceOnUse" x1="383.69" x2="383.69" y1="333.809" y2="259.255"><stop offset=".263" stop-color="#fdda47"/><stop offset=".791" stop-color="#faeacb"/></linearGradient><linearGradient id="linear-gradient-8" gradientUnits="userSpaceOnUse" x1="205.232" x2="229.359" y1="355.561" y2="315.732"><stop offset="0" stop-color="#cc3959"/><stop offset=".044" stop-color="#d13d5b"/><stop offset=".29" stop-color="#e75164"/><stop offset=".525" stop-color="#f45d6a"/><stop offset=".735" stop-color="#f9616c"/></linearGradient><linearGradient id="linear-gradient-9" gradientUnits="userSpaceOnUse" x1="275.191" x2="275.191" y1="127.511" y2="234.265"><stop offset=".067" stop-color="#fdda47"/><stop offset=".411" stop-color="#faeacb"/><stop offset=".727" stop-color="#fdda47"/></linearGradient><linearGradient id="linear-gradient-10" gradientUnits="userSpaceOnUse" x1="294.787" x2="294.787" y1="277.252" y2="257.088"><stop offset=".163" stop-color="#373e6c"/><stop offset=".191" stop-color="#3f4775"/><stop offset=".273" stop-color="#525a89"/><stop offset=".368" stop-color="#5f6897"/><stop offset=".482" stop-color="#67719f"/><stop offset=".672" stop-color="#6973a2"/></linearGradient><linearGradient id="linear-gradient-11" x1="287.872" x2="287.872" xlink:href="#linear-gradient-10" y1="344.52" y2="324.941"/><linearGradient id="linear-gradient-12" x1="205.232" x2="229.359" xlink:href="#linear-gradient-8" y1="287.817" y2="247.987"/><g id="flat_copy" data-name="flat copy"><path d="m275.819 54.745v390.72a35 35 0 0 1 -35 35h-171.28a35.068 35.068 0 0 1 -35-35v-390.72a35 35 0 0 1 35-35h171.28a35.054 35.054 0 0 1 35 35z" fill="url(#linear-gradient)"/><path d="m282.32 131.51v290.3h-133.31a15.005 15.005 0 0 1 -15-15v-260.3a15.005 15.005 0 0 1 15-15z" fill="url(#linear-gradient-2)"/><path d="m240.82 13.25h-171.28a41.545 41.545 0 0 0 -41.5 41.5v390.72a41.551 41.551 0 0 0 41.5 41.5h171.28a41.57 41.57 0 0 0 41.44-39.15c.04-.78.06-1.56.06-2.35v-390.72a41.545 41.545 0 0 0 -41.5-41.5zm28.5 432.22a22.834 22.834 0 0 1 -.11 2.35 28.515 28.515 0 0 1 -28.39 26.15h-171.28a28.539 28.539 0 0 1 -28.5-28.5v-390.72a28.532 28.532 0 0 1 28.5-28.5h28.16l6.68 16.64a15.021 15.021 0 0 0 13.92 9.41h75.3a15 15 0 0 0 13.92-9.41l6.68-16.64h26.62a28.526 28.526 0 0 1 28.5 28.5z" fill="#3c3c5d"/><path d="m215.5 460.921h-120.639a6.5 6.5 0 0 1 0-13h120.639a6.5 6.5 0 0 1 0 13z" fill="#3c3c5d"/><path d="m360.872 164.787h43.2a10 10 0 0 1 10 10v20.34a10 10 0 0 1 -10 10h-43.2a0 0 0 0 1 0 0v-40.34a0 0 0 0 1 0 0z" fill="url(#linear-gradient-3)"/><path d="m360.872 124.447h43.2a10 10 0 0 1 10 10v20.34a10 10 0 0 1 -10 10h-43.2a0 0 0 0 1 0 0v-40.34a0 0 0 0 1 0 0z" fill="url(#linear-gradient-4)"/><rect fill="url(#linear-gradient-5)" height="290.298" rx="15" width="216.998" x="166.693" y="104.851"/><path d="m383.69 319.511c-20.028 0-33.015 12-40.995 24a64.951 64.951 0 0 0 -10.953 36.179v44.821c0 8.284 8.232 15 18.386 15h67.125c10.154 0 18.385-6.716 18.385-15v-44.821a64.943 64.943 0 0 0 -10.953-36.179c-7.98-12-20.967-24-40.995-24z" fill="url(#linear-gradient-6)"/><circle cx="383.69" cy="296.532" fill="url(#linear-gradient-7)" r="37.277"/><circle cx="217.86" cy="334.714" fill="url(#linear-gradient-8)" r="16.969"/><path d="m280.587 134.866 8.53 17.284a6.012 6.012 0 0 0 4.53 3.291l19.073 2.772a6.017 6.017 0 0 1 3.335 10.263l-13.8 13.453a6.015 6.015 0 0 0 -1.73 5.325l3.258 19a6.016 6.016 0 0 1 -8.73 6.342l-17.06-8.968a6.013 6.013 0 0 0 -5.6 0l-17.06 8.968a6.016 6.016 0 0 1 -8.73-6.342l3.258-19a6.015 6.015 0 0 0 -1.73-5.325l-13.8-13.453a6.017 6.017 0 0 1 3.335-10.263l19.073-2.772a6.012 6.012 0 0 0 4.53-3.291l8.53-17.284a6.017 6.017 0 0 1 10.788 0z" fill="url(#linear-gradient-9)"/><path d="m329.085 273.469h-68.6a6.5 6.5 0 1 1 0-13h68.6a6.5 6.5 0 0 1 0 13z" fill="url(#linear-gradient-10)"/><path d="m315.255 341.214h-54.766a6.5 6.5 0 1 1 0-13h54.766a6.5 6.5 0 0 1 0 13z" fill="url(#linear-gradient-11)"/><circle cx="217.86" cy="266.969" fill="url(#linear-gradient-12)" r="16.969"/></g><g id="line" fill="#181926"><path d="m430.1 339.912a67.748 67.748 0 0 0 -13.226-14.881c22.483-25.736 6.975-66.951-26.688-71.79v-41.611h13.88a16.519 16.519 0 0 0 16.5-16.5v-20.34a16.4 16.4 0 0 0 -3.406-10 16.4 16.4 0 0 0 3.406-10v-20.34a16.519 16.519 0 0 0 -16.5-16.5h-13.972a21.521 21.521 0 0 0 -21.4-19.6h-87v-43.71a41.547 41.547 0 0 0 -41.5-41.5h-171.284a41.547 41.547 0 0 0 -41.5 41.5v390.72a41.547 41.547 0 0 0 41.5 41.5h171.28a41.547 41.547 0 0 0 41.5-41.5v-43.71h43.55v22.86c0 11.855 11.166 21.5 24.89 21.5h67.12c13.725 0 24.89-9.645 24.89-21.5v-44.82a71.693 71.693 0 0 0 -12.04-39.778zm-15.637-43.38a30.812 30.812 0 0 1 -30.777 30.777c-40.8-1.688-40.833-59.8-.057-61.552a30.812 30.812 0 0 1 30.838 30.775zm-6.9-101.4a3.5 3.5 0 0 1 -3.5 3.5h-13.873v-27.342h13.88a3.5 3.5 0 0 1 3.5 3.5zm0-60.68v20.34a3.5 3.5 0 0 1 -3.5 3.5h-13.873v-27.342h13.88a3.5 3.5 0 0 1 3.5 3.5zm-201-108.31-5.709 14.217a8.46 8.46 0 0 1 -7.888 5.333h-75.3a8.461 8.461 0 0 1 -7.888-5.333l-5.702-14.219zm62.127 419.218a28.532 28.532 0 0 1 -28.5 28.5h-171.28a28.532 28.532 0 0 1 -28.5-28.5v-390.72a28.532 28.532 0 0 1 28.5-28.5h21.157l7.654 19.06a21.4 21.4 0 0 0 19.951 13.49h75.3a21.4 21.4 0 0 0 19.95-13.49l7.654-19.061h19.614a28.532 28.532 0 0 1 28.5 28.5v43.711h-87a21.525 21.525 0 0 0 -21.5 21.5v260.3a21.525 21.525 0 0 0 21.5 21.5h87zm-87-56.71a8.51 8.51 0 0 1 -8.5-8.5v-260.3a8.51 8.51 0 0 1 8.5-8.5h187a8.51 8.51 0 0 1 8.5 8.5v133.391c-33.682 4.846-49.163 46.069-26.684 71.794-15.663 12.952-25.465 34.148-25.266 54.655v8.96zm247.45 35.86c0 4.607-5.445 8.5-11.89 8.5h-67.12c-6.445 0-11.89-3.893-11.89-8.5v-44.82c-.223-17.322 8.637-35.8 22.31-46.022 13.288 8.764 33 8.763 46.283 0 13.685 10.218 22.524 28.707 22.307 46.023z"/><path d="m217.86 243.5a23.5 23.5 0 0 0 -23.469 23.469c1.289 31.135 45.654 31.126 46.939 0a23.5 23.5 0 0 0 -23.47-23.469zm0 33.938a10.48 10.48 0 0 1 -10.469-10.469c.575-13.889 20.366-13.885 20.939 0a10.481 10.481 0 0 1 -10.47 10.469z"/><path d="m217.86 311.245a23.5 23.5 0 0 0 -23.469 23.469c1.289 31.135 45.654 31.126 46.939 0a23.5 23.5 0 0 0 -23.47-23.469zm0 33.938a10.48 10.48 0 0 1 -10.469-10.469c.575-13.889 20.366-13.885 20.939 0a10.481 10.481 0 0 1 -10.47 10.469z"/><path d="m275.191 209.5 16.835 8.851a12.517 12.517 0 0 0 18.162-13.2l-3.216-18.746 13.62-13.276a12.517 12.517 0 0 0 -6.937-21.35l-18.822-2.735-8.417-17.055a12.517 12.517 0 0 0 -22.449 0l-8.417 17.055-18.821 2.735a12.517 12.517 0 0 0 -6.938 21.35l13.62 13.276-3.211 18.746a12.517 12.517 0 0 0 18.161 13.2zm-22.524-32.222-13.1-12.77c28.685-4.376 22.611-.015 35.625-25.883 13.027 25.926 7 21.5 35.625 25.883-20.618 20.376-18.288 13.333-13.607 41.88-25.679-13.3-18.4-13.261-44.035 0l3.092-18.03a12.514 12.514 0 0 0 -3.6-11.084z"/><path d="m87.732 454.316a6.5 6.5 0 0 0 6.5 6.5h120.639a6.5 6.5 0 1 0 0-13h-120.639a6.5 6.5 0 0 0 -6.5 6.5z"/><path d="m253.989 266.969a6.5 6.5 0 0 0 6.5 6.5h68.6a6.5 6.5 0 0 0 0-13h-68.6a6.5 6.5 0 0 0 -6.5 6.5z"/><path d="m315.255 328.214h-54.766c-8.589.29-8.616 12.7 0 13h54.766c8.589-.29 8.616-12.7 0-13z"/></g></svg>