<!-- icon666.com - MILLIONS vector ICONS FREE --><svg viewBox="0 0 64 64" xmlns="http://www.w3.org/2000/svg" xmlns:xlink="http://www.w3.org/1999/xlink"><linearGradient id="linear-gradient" gradientUnits="userSpaceOnUse" x1="3.955" x2="60" y1="32" y2="32"><stop offset="0" stop-color="#0fdcdd"/><stop offset="1" stop-color="#46a1e8"/></linearGradient><g id="_24_Contacts" data-name="24 Contacts"><path d="m57 22a3 3 0 0 0 3-3v-10a3 3 0 0 0 -3-3h-3c.28-1.9482-.8524-4.0221-3-4h-38a3.0088 3.0088 0 0 0 -3 3v4h-3c-4.06-.06-4.06 7.06 0 7h3v6h-3c-4.06-.06-4.06 7.06 0 7h3v6h-3c-4.06-.06-4.06 7.06 0 7h3v6h-3c-4.06-.06-4.06 7.06 0 7h3v4a3.0088 3.0088 0 0 0 3 3h38c2.1483.0217 3.28-2.0518 3-4h3a3 3 0 0 0 3-3v-10a3 3 0 0 0 -3-3h-3v-2h3a3 3 0 0 0 3-3v-10a3 3 0 0 0 -3-3h-3v-2zm0-14a1 1 0 0 1 1 1v10a1 1 0 0 1 -1 1h-3v-12zm-50 6c-1.43.01-1.43-3.01 0-3h10c1.42-.07 1.42 3.07 0 3zm0 13c-1.43.01-1.43-3.01 0-3h10c1.42-.07 1.42 3.07 0 3zm0 13c-1.43.01-1.43-3.01 0-3h10c1.42-.07 1.42 3.07 0 3zm0 13c-1.43.01-1.43-3.01 0-3h10c1.42-.07 1.42 3.07 0 3zm50-9a1 1 0 0 1 1 1v10a1 1 0 0 1 -1 1h-3v-12zm0-18a1 1 0 0 1 1 1v10a1 1 0 0 1 -1 1h-3v-12zm-5 33a1.0029 1.0029 0 0 1 -1 1h-38a1.0029 1.0029 0 0 1 -1-1v-4h5c4.06.06 4.06-7.06 0-7h-5v-6h5c4.06.06 4.06-7.06 0-7h-5v-6h5c4.06.06 4.06-7.06 0-7h-5v-6h5c4.06.06 4.06-7.06 0-7h-5v-4a1.0029 1.0029 0 0 1 1-1h38a1.0029 1.0029 0 0 1 1 1zm-6-21.32a7.199 7.199 0 0 0 -6.5414-7.1406c3.208-4.006 1.3935-11.5038-5.4581-11.5394-6.8544.0347-8.6685 7.5381-5.4555 11.5433a7.1866 7.1866 0 0 0 -6.545 7.1367c-.24 2.26.35 4.97 2.93 5.45a33.3934 33.3934 0 0 0 18.14 0c2.58-.48 3.17-3.19 2.93-5.45zm-12-16.68c6.6142-.09 6.6141 10.09 0 10-6.6142.0905-6.6141-10.09 0-10zm8.64 20.18a32.4855 32.4855 0 0 1 -17.28 0c-1.62-.27-1.37-2.29-1.36-3.5-.0962-3.6764 3.4337-5.2933 6.6238-5.4523a7.9047 7.9047 0 0 0 6.753 0c3.1906.1585 6.72 1.7772 6.6232 5.4522.01 1.2101.26 3.2301-1.36 3.5001z" fill="url(#linear-gradient)"/></g></svg>