<!-- icon666.com - MILLIONS vector ICONS FREE --><svg viewBox="0 0 64 64" xmlns="http://www.w3.org/2000/svg"><g id="_24_Contacts" data-name="24 Contacts"><path d="m57 24h-5v16h5a3 3 0 0 0 3-3v-10a3 3 0 0 0 -3-3z" fill="#1c82ba" style="fill: rgb(0, 17, 255);"></path><path d="m57 42h-5v16h5a3 3 0 0 0 3-3v-10a3 3 0 0 0 -3-3z" fill="#1c82ba" style="fill: rgb(0, 17, 255);"></path><path d="m57 6h-5v16h5a3 3 0 0 0 3-3v-10a3 3 0 0 0 -3-3z" fill="#1c82ba" style="fill: rgb(0, 17, 255);"></path><rect fill="#26a6fe" height="60" rx="3" width="44" x="10" y="2" style="fill: rgb(208, 254, 42);"></rect><g fill="#1c82ba"><path d="m17 48h-10c-4.0585-.0583-4.0594 7.0581 0 7h10c4.0585.0583 4.0594-7.0581 0-7z" fill="#1c82ba" style="fill: rgb(0, 17, 255);"></path><path d="m17 35h-10c-4.0585-.0583-4.0594 7.0581 0 7h10c4.0585.0583 4.0594-7.0581 0-7z" fill="#1c82ba" style="fill: rgb(0, 17, 255);"></path><path d="m17 22h-10c-4.0585-.0583-4.0594 7.0581 0 7h10c4.0585.0583 4.0594-7.0581 0-7z" fill="#1c82ba" style="fill: rgb(0, 17, 255);"></path><path d="m7 16h10c4.0585.0583 4.0594-7.0581 0-7h-10c-4.0585-.0583-4.0594 7.0581 0 7z" fill="#1c82ba" style="fill: rgb(0, 17, 255);"></path></g><path d="m46 37.6812a7.1062 7.1062 0 0 0 -5.957-7.0318l-5.8789-.98a.9773.9773 0 0 0 -.3282 0l-5.8789.98a7.1062 7.1062 0 0 0 -5.957 7.0318c-.2431 2.2579.35 4.9651 2.9326 5.4511a50.36 50.36 0 0 0 9.0674 1.357 50.36 50.36 0 0 0 9.0674-1.357c2.5826-.4858 3.1761-3.1923 2.9326-5.4511z" fill="#ffc107" style="fill: rgb(255, 5, 5);"></path><path d="m34.0005 19c-9.3334.0472-9.3342 13.9514 0 14 9.3325-.0473 9.3332-13.9515 0-14z" fill="#ffa000" style="fill: rgb(255, 0, 89);"></path></g><g id="Layer_32" data-name="Layer 32"><path d="m57 22a3 3 0 0 0 3-3v-10a3 3 0 0 0 -3-3h-3v-1a3.0088 3.0088 0 0 0 -3-3h-38a3.0088 3.0088 0 0 0 -3 3v4h-3c-4.06-.06-4.06 7.06 0 7h3v6h-3c-4.06-.06-4.06 7.06 0 7h3v6h-3c-4.06-.06-4.06 7.06 0 7h3v6h-3c-4.06-.06-4.06 7.06 0 7h3v4a3.0088 3.0088 0 0 0 3 3h38a3.0088 3.0088 0 0 0 3-3v-1h3a3 3 0 0 0 3-3v-10a3 3 0 0 0 -3-3h-3v-2h3a3 3 0 0 0 3-3v-10a3 3 0 0 0 -3-3h-3v-2zm0-14a1 1 0 0 1 1 1v10a1 1 0 0 1 -1 1h-3v-12zm-50 6c-1.43.01-1.43-3.01 0-3h10c1.42-.07 1.42 3.07 0 3zm0 13c-1.43.01-1.43-3.01 0-3h10c1.42-.07 1.42 3.07 0 3zm0 13c-1.43.01-1.43-3.01 0-3h10c1.42-.07 1.42 3.07 0 3zm0 13c-1.43.01-1.43-3.01 0-3h10c1.42-.07 1.42 3.07 0 3zm50-9a1 1 0 0 1 1 1v10a1 1 0 0 1 -1 1h-3v-12zm0-18a1 1 0 0 1 1 1v10a1 1 0 0 1 -1 1h-3v-12zm-5 33a1.0029 1.0029 0 0 1 -1 1h-38a1.0029 1.0029 0 0 1 -1-1v-4h5c4.06.06 4.06-7.06 0-7h-5v-6h5c4.06.06 4.06-7.06 0-7h-5v-6h5c4.06.06 4.06-7.06 0-7h-5v-6h5c4.06.06 4.06-7.06 0-7h-5v-4a1.0029 1.0029 0 0 1 1-1h38a1.0029 1.0029 0 0 1 1 1zm-6-21.32a7.199 7.199 0 0 0 -6.5414-7.1406c3.208-4.006 1.3935-11.5038-5.4581-11.5394-6.8544.0347-8.6685 7.5381-5.4555 11.5433a7.1866 7.1866 0 0 0 -6.545 7.1367c-.24 2.26.35 4.97 2.93 5.45a50.3873 50.3873 0 0 0 9.07 1.36 50.3873 50.3873 0 0 0 9.07-1.36c2.58-.48 3.17-3.19 2.93-5.45zm-12-16.68c6.6142-.09 6.6141 10.09 0 10-6.6142.0905-6.6141-10.09 0-10zm8.64 20.18a50.4547 50.4547 0 0 1 -8.64 1.31 50.4547 50.4547 0 0 1 -8.64-1.31c-1.62-.27-1.37-2.29-1.36-3.5a5.1142 5.1142 0 0 1 4.29-5.06c.0139-.0023 2.3211-.39 2.3338-.3923a7.9047 7.9047 0 0 0 6.753 0l.0132.0022 2.32.39a5.1142 5.1142 0 0 1 4.29 5.0601c.01 1.21.26 3.23-1.36 3.5z" fill="#000000"></path></g></svg>