<!-- icon666.com - MILLIONS vector ICONS FREE --><svg id="Layer_1" enable-background="new 0 0 512 512" viewBox="0 0 512 512" xmlns="http://www.w3.org/2000/svg"><g clip-rule="evenodd" fill-rule="evenodd"><g><g><path d="m301.77 134.004v314.287c0 15.005-12.239 27.244-27.243 27.244h-239.281c-15.006 0-27.243-12.239-27.243-27.244v-314.287c0-8.008 3.07-14.9 9.024-20.255l96.186-86.522c12.344-11.106 25.069-19.227 41.673-19.227 16.605 0 29.329 8.125 41.674 19.227l96.186 86.522c5.953 5.355 9.024 12.247 9.024 20.255z" fill="#b3e59f"/><path d="m364.843 162.468v314.288c0 15.005-12.239 27.244-27.243 27.244h-239.28c-15.006 0-27.243-12.239-27.243-27.244v-314.288c0-8.007 3.07-14.9 9.024-20.255l96.186-86.521c12.346-11.106 25.07-19.228 41.674-19.228 16.605 0 29.329 8.125 41.674 19.228l96.186 86.521c5.952 5.355 9.022 12.248 9.022 20.255z" fill="#ccf49f"/><path d="m364.843 162.468v314.287c0 15.005-12.239 27.244-27.243 27.244h-119.64v-467.535c16.605 0 29.329 8.125 41.674 19.228l96.186 86.521c5.953 5.355 9.023 12.248 9.023 20.255z" fill="#b3e59f"/><ellipse cx="217.96" cy="95.064" fill="#f7f9fa" rx="22.022" ry="22.022" transform="matrix(.707 -.707 .707 .707 -3.381 181.964)"/><path d="m217.96 73.041c12.161 0 22.022 9.861 22.022 22.022s-9.861 22.022-22.022 22.022z" fill="#e3e3e3"/></g><g><path d="m330.274 230.633-118.035 85.757v151.292c0 19.975 16.344 36.319 36.319 36.319h163.432c19.975 0 36.319-16.344 36.319-36.319v-151.291z" fill="#eceff1"/><path d="m330.274 504.001h81.716c19.975 0 36.319-16.344 36.319-36.319v-151.291l-118.035-85.757z" fill="#e1e4e6"/><path d="m196.848 339.131c-11.359 8.231-27.24 5.695-35.471-5.663s-5.695-27.24 5.664-35.47l148.329-107.768c9.277-6.722 21.569-6.262 30.247.32l147.889 107.448c11.358 8.231 13.894 24.112 5.663 35.47-8.231 11.359-24.112 13.894-35.47 5.663l-133.425-96.939z" fill="#fe646f"/><path d="m330.274 185.397c5.469.005 10.884 1.77 15.344 5.153l147.889 107.448c11.359 8.231 13.894 24.112 5.663 35.471-8.231 11.358-24.112 13.894-35.47 5.663l-133.426-96.94z" fill="#fd4755"/><path d="m348.394 365.081h-36.24c-9.397 0-17.084 7.688-17.084 17.084v121.836h70.408v-121.836c0-9.396-7.688-17.084-17.084-17.084z" fill="#f1ba84"/><path d="m348.394 365.081h-18.12v138.92h35.204v-121.836c0-9.396-7.688-17.084-17.084-17.084z" fill="#de9252"/></g></g><path d="m492.7 328.77c-5.633 7.769-16.531 9.509-24.292 3.89l-133.428-96.94c-1.401-1.021-3.052-1.531-4.699-1.531-1.651 0-3.302.51-4.699 1.531l-133.433 96.94c-7.77 5.619-18.659 3.879-24.292-3.89-2.727-3.76-3.816-8.359-3.086-12.95.727-4.59 3.208-8.621 6.978-11.35l148.322-107.76c6.147-4.459 14.668-4.371 20.716.219.043.029.094.06.132.09l147.898 107.461c3.76 2.718 6.232 6.749 6.973 11.339.727 4.592-.373 9.191-3.09 12.951zm-52.391 138.909v-135.649l-110.029-79.95-110.042 79.95v135.649c0 15.62 12.71 28.32 28.321 28.32h38.511v-113.83c0-13.829 11.257-25.089 25.089-25.089h36.237c13.833 0 25.079 11.261 25.079 25.089v113.829h38.512c15.622.001 28.322-12.698 28.322-28.319zm-82.83 28.32h-54.41v-113.83c0-5.009 4.081-9.089 9.091-9.089h36.237c5.01 0 9.082 4.08 9.082 9.089zm-278.402-19.24c0 10.611 8.634 19.24 19.244 19.24h116.18c-6.402-7.679-10.261-17.559-10.261-28.32v-124.03l-2.68 1.95c-.009.011-.009.011-.009.011-5.911 4.279-12.762 6.339-19.56 6.339-10.351 0-20.565-4.78-27.094-13.79-10.799-14.909-7.459-35.829 7.454-46.64l148.318-107.759c11.983-8.68 27.929-8.531 39.719.369l6.463 4.69v-26.349c0-5.77-2.095-10.45-6.383-14.31l-96.177-86.52c-13.573-12.2-24.094-17.171-36.332-17.171-12.228 0-22.759 4.971-36.322 17.171l-96.186 86.52c-4.284 3.86-6.374 8.54-6.374 14.31zm-63.067-28.469c0 10.61 8.629 19.249 19.239 19.249h27.83v-305.069c0-10.271 4.039-19.33 11.667-26.201l96.191-86.519c6.223-5.601 13.29-11.259 21.655-15.331l-1.382-1.241c-13.559-12.196-24.08-17.178-36.318-17.178-12.243 0-22.763 4.982-36.322 17.177l-96.191 86.523c-4.288 3.861-6.369 8.54-6.369 14.31zm482.2-156.76-125.361-91.09v-37.97c0-10.271-4.043-19.33-11.681-26.201l-96.177-86.519c-11.7-10.528-26.443-21.28-47.032-21.28-2.59 0-5.09.17-7.511.491l-8.539-7.681c-11.7-10.521-26.429-21.277-47.018-21.277-20.593 0-35.331 10.757-47.022 21.277l-96.191 86.521c-7.638 6.87-11.667 15.93-11.667 26.209v314.28c0 19.439 15.804 35.249 35.237 35.249h28.492c3.17 16.201 17.47 28.459 34.581 28.459h313.667c24.443 0 44.319-19.879 44.319-44.319v-124.03l2.703 1.961c14.908 10.799 35.832 7.46 46.64-7.451 10.809-14.909 7.469-35.829-7.44-46.629zm-280.251-206.57c5.581 0 10.11 4.53 10.11 10.11 0 5.569-4.529 10.101-10.11 10.101-5.572 0-10.101-4.532-10.101-10.101.001-5.581 4.53-10.11 10.101-10.11zm0 36.21c-14.389 0-26.099-11.711-26.099-26.101 0-14.4 11.71-26.11 26.099-26.11 14.399 0 26.108 11.71 26.108 26.11.001 14.39-11.709 26.101-26.108 26.101z"/></g></svg>