<!-- icon666.com - MILLIONS vector ICONS FREE --><svg id="Layer_1" viewBox="0 0 512 512" xmlns="http://www.w3.org/2000/svg" xmlns:xlink="http://www.w3.org/1999/xlink" data-name="Layer 1"><linearGradient id="linear-gradient" gradientUnits="userSpaceOnUse" x1="127.945" x2="384.055" y1="477.798" y2="34.202"><stop offset="0" stop-color="#9d31fe"/><stop offset=".12" stop-color="#9637fc"/><stop offset=".299" stop-color="#8149f6"/><stop offset=".517" stop-color="#6067ec"/><stop offset=".761" stop-color="#318fde"/><stop offset=".895" stop-color="#15a8d6"/></linearGradient><path d="m219.236 131.855a29.679 29.679 0 1 1 29.679 29.679 29.712 29.712 0 0 1 -29.679-29.679zm60.5 269.7a8.851 8.851 0 0 1 -8.736-8.737v-172.209a38.777 38.777 0 0 0 -38.733-38.733 15 15 0 0 0 0 30 8.85 8.85 0 0 1 8.733 8.733v172.209a38.778 38.778 0 0 0 38.733 38.734 15 15 0 1 0 0-30zm232.264-145.555a256 256 0 0 1 -437.019 181.02 256 256 0 1 1 362.039-362.039 254.323 254.323 0 0 1 74.98 181.019zm-30 0c0-124.617-101.383-226-226-226s-226 101.383-226 226 101.383 226 226 226 226-101.383 226-226z" fill="url(#linear-gradient)"/></svg>