<!-- icon666.com - MILLIONS vector ICONS FREE --><svg enable-background="new 0 0 520 520" viewBox="0 0 520 520" xmlns="http://www.w3.org/2000/svg"><g id="_x31_39_x2C__Computer_x2C__Email_x2C__Laptop_x2C__Notification"><g><path d="m460 427.5c8.29 0 15.79 3.36 21.21 8.79 5.43 5.43 8.79 12.93 8.79 21.21 0 16.57-13.43 30-30 30h-400c-8.29 0-15.79-3.36-21.21-8.79-5.43-5.43-8.79-12.93-8.79-21.21 0-16.57 13.43-30 30-30z" fill="#4f5961"/><path d="m436.33 127.5c-9.343 0-331.298 0-352.66 0-18.6 0-33.67 15.07-33.67 33.67v232.66c0 18.6 15.07 33.67 33.67 33.67h352.66c18.6 0 33.67-15.07 33.67-33.67v-232.66c0-18.6-15.07-33.67-33.67-33.67z" fill="#5e6b75"/><path d="m380 167.5 55 55v165h-350v-220z" fill="#ecf0f1"/><path d="m317.75 97.5h-165.5c-12.29 0-22.25 9.96-22.25 22.25v7.75 40 67.75c0 12.29 9.96 22.25 22.25 22.25h141.08l46.67 50v-50-25-65-40-7.75c0-12.29-9.96-22.25-22.25-22.25z" fill="#68ca44"/><path d="m435 167.5v55l-55-55z" fill="#c3c8c9"/><g fill="#c1dbfc"><path d="m375 427.5h55v20h-55z"/><path d="m210 427.5h100v20h-100z"/><path d="m90 427.5h55v20h-55z"/></g><path d="m70 62.5c11.04 0 20 8.95 20 20s-8.96 20-20 20c-11.05 0-20-8.95-20-20s8.95-20 20-20z" fill="#fba615"/><circle cx="442.5" cy="60" fill="#fba615" r="27.5"/><path d="m310 127.5-75 65-75-65z" fill="#c1dbfc"/><circle cx="482.5" cy="110" r="7.5"/><circle cx="377.5" cy="70" r="7.5"/><path d="m310 127.5v100h-150v-100l75 65z" fill="#e4f4fe"/><circle cx="257.5" cy="45" r="7.5"/><circle cx="127.5" cy="60" r="7.5"/><circle cx="37.5" cy="125" r="7.5"/><path d="m310 452.5h-100c-2.762 0-5-2.238-5-5v-20c0-2.762 2.238-5 5-5 2.761 0 5 2.238 5 5v15h90v-15c0-2.762 2.238-5 5-5 2.761 0 5 2.238 5 5v20c0 2.762-2.239 5-5 5z"/><path d="m460 492.5h-400c-9.356 0-18.146-3.643-24.749-10.258-6.609-6.609-10.251-15.397-10.251-24.742 0-19.299 15.701-35 35-35h23.67c2.761 0 5 2.238 5 5s-2.239 5-5 5h-23.67c-13.785 0-25 11.215-25 25 0 6.674 2.602 12.95 7.325 17.675 4.717 4.724 10.992 7.325 17.675 7.325h400c13.785 0 25-11.215 25-25 0-6.674-2.602-12.951-7.325-17.674-4.717-4.726-10.993-7.326-17.675-7.326h-23.67c-2.762 0-5-2.238-5-5s2.238-5 5-5h23.67c9.356 0 18.146 3.643 24.748 10.258 6.609 6.608 10.252 15.396 10.252 24.742 0 19.299-15.701 35-35 35z"/><path d="m145 452.5h-55c-2.762 0-5-2.238-5-5v-20c0-2.762 2.238-5 5-5 2.761 0 5 2.238 5 5v15h45v-15c0-2.762 2.238-5 5-5 2.761 0 5 2.238 5 5v20c0 2.762-2.239 5-5 5z"/><path d="m430 452.5h-55c-2.762 0-5-2.238-5-5v-20c0-2.762 2.238-5 5-5 2.761 0 5 2.238 5 5v15h45v-15c0-2.762 2.238-5 5-5 2.761 0 5 2.238 5 5v20c0 2.762-2.239 5-5 5z"/><path d="m435 392.5h-350c-2.762 0-5-2.238-5-5v-220c0-2.761 2.238-5 5-5h45c2.761 0 5 2.239 5 5s-2.239 5-5 5h-40v210h340v-210h-90c-2.762 0-5-2.239-5-5s2.238-5 5-5h95c2.761 0 5 2.239 5 5v220c0 2.762-2.239 5-5 5z"/><path d="m436.33 432.5h-352.66c-21.323 0-38.67-17.348-38.67-38.67v-232.66c0-21.323 17.347-38.67 38.67-38.67h46.33c2.761 0 5 2.239 5 5s-2.239 5-5 5h-46.33c-15.809 0-28.67 12.861-28.67 28.67v232.66c0 15.809 12.861 28.67 28.67 28.67h352.66c15.809 0 28.67-12.861 28.67-28.67v-232.66c0-15.809-12.861-28.67-28.67-28.67h-96.33c-2.762 0-5-2.239-5-5s2.238-5 5-5h96.33c21.322 0 38.67 17.347 38.67 38.67v232.66c0 21.322-17.348 38.67-38.67 38.67z"/><path d="m310 232.5h-150c-2.762 0-5-2.239-5-5v-100c0-2.761 2.238-5 5-5 2.761 0 5 2.239 5 5v95h140v-95c0-2.761 2.238-5 5-5 2.761 0 5 2.239 5 5v100c0 2.761-2.239 5-5 5z"/><path d="m235 197.5c-1.168 0-2.335-.407-3.274-1.222l-75-65c-1.578-1.367-2.14-3.57-1.41-5.526s2.597-3.252 4.685-3.252h150c2.087 0 3.955 1.297 4.685 3.252s.167 4.159-1.41 5.526l-75 65c-.941.815-2.109 1.222-3.276 1.222zm-61.597-65 61.597 53.383 61.596-53.383z"/><path d="m340.001 312.5c-1.36 0-2.691-.555-3.656-1.588l-45.188-48.412h-138.907c-15.026 0-27.25-12.224-27.25-27.25v-115.5c0-15.026 12.224-27.25 27.25-27.25h165.5c15.025 0 27.25 12.224 27.25 27.25v187.75c0 2.054-1.256 3.898-3.167 4.651-.595.236-1.217.349-1.832.349zm-187.751-210c-9.512 0-17.25 7.738-17.25 17.25v115.5c0 9.512 7.738 17.25 17.25 17.25h141.08c1.386 0 2.709.575 3.655 1.588l38.015 40.727v-175.065c0-9.512-7.738-17.25-17.25-17.25z"/><path d="m205 302.5h-80c-2.762 0-5-2.238-5-5s2.238-5 5-5h80c2.761 0 5 2.238 5 5s-2.239 5-5 5z"/><path d="m285 322.5h-160c-2.762 0-5-2.238-5-5s2.238-5 5-5h160c2.761 0 5 2.238 5 5s-2.239 5-5 5z"/><path d="m285 342.5h-160c-2.762 0-5-2.238-5-5s2.238-5 5-5h160c2.761 0 5 2.238 5 5s-2.239 5-5 5z"/><path d="m285 362.5h-160c-2.762 0-5-2.238-5-5s2.238-5 5-5h160c2.761 0 5 2.238 5 5s-2.239 5-5 5z"/><path d="m70 107.5c-13.785 0-25-11.215-25-25s11.215-25 25-25 25 11.215 25 25-11.215 25-25 25zm0-40c-8.271 0-15 6.729-15 15s6.729 15 15 15 15-6.729 15-15-6.729-15-15-15z"/><path d="m442.5 92.5c-17.921 0-32.5-14.58-32.5-32.5s14.579-32.5 32.5-32.5c17.92 0 32.5 14.58 32.5 32.5s-14.58 32.5-32.5 32.5zm0-55c-12.407 0-22.5 10.093-22.5 22.5s10.093 22.5 22.5 22.5c12.406 0 22.5-10.093 22.5-22.5s-10.094-22.5-22.5-22.5z"/><path d="m435 227.5c-1.28 0-2.56-.488-3.536-1.464l-55-55c-1.952-1.953-1.952-5.119 0-7.071 1.953-1.952 5.118-1.952 7.071 0l55 55c1.953 1.953 1.953 5.119 0 7.071-.976.976-2.256 1.464-3.535 1.464z"/><path d="m415 237.5c-1.28 0-2.56-.488-3.536-1.464l-20-20c-1.952-1.953-1.952-5.119 0-7.071 1.953-1.952 5.118-1.952 7.071 0l20 20c1.953 1.953 1.953 5.119 0 7.071-.976.976-2.256 1.464-3.535 1.464z"/></g></g></svg>