<!-- icon666.com - MILLIONS vector ICONS FREE --><svg viewBox="0 0 64 64" xmlns="http://www.w3.org/2000/svg"><g id="workhome-virus-covid19-coronavirus-home"><path d="m56 24.72v36.28h-48v-36.28l24-15.72z" fill="#ffa733"/><path d="m52 22.1v11.9a24 24 0 0 1 -24 24h-20v3h48v-36.28z" fill="#ff9811"/><path d="m16 26h16v10h-16z" fill="#a7a9ac"/><path d="m14 39h36v4h-36z" fill="#414042"/><path d="m17 43v14h3v-2-12z" fill="#808285"/><path d="m44 55v2h3v-14h-3z" fill="#808285"/><path d="m26 36v-2a2 2 0 0 0 -4 0v5h4z" fill="#58595b"/><path d="m48 36a4 4 0 0 0 -4-4h-4a4 4 0 0 0 -4 4v3h12z" fill="#004fac"/><circle cx="42" cy="27" fill="#005ece" r="3"/><path d="m20 43h24v12h-24z" fill="#939598"/><path d="m3 22v6l5-3.276v-.004.004l24-15.724 24 15.724v-.004.004l5 3.276v-6l-29-19z" fill="#d80027"/><path d="m20 43h24v2h-24z" fill="#808285"/><g fill="#231f20"><path d="m46 27a4 4 0 1 0 -4 4 4 4 0 0 0 4-4zm-4 2a2 2 0 1 1 2-2 2 2 0 0 1 -2 2z"/><path d="m61.55 21.16-29-19a1.039 1.039 0 0 0 -1.1 0l-29 19a1.013 1.013 0 0 0 -.45.84v6a.994.994 0 0 0 .52.88 1.025 1.025 0 0 0 1.03-.04l3.45-2.27v34.43a1 1 0 0 0 1 1h48a1 1 0 0 0 1-1v-34.43l3.45 2.27a1 1 0 0 0 .55.16 1.034 1.034 0 0 0 .48-.12.994.994 0 0 0 .52-.88v-6a1.013 1.013 0 0 0 -.45-.84zm-6.55 38.84h-46v-34.74l23-15.06 23 15.06zm5-33.85-27.45-17.99a1.025 1.025 0 0 0 -1.1 0l-27.45 17.99v-3.61l28-18.34 28 18.34z"/><path d="m50 38h-1v-2a5 5 0 0 0 -5-5h-4a5 5 0 0 0 -5 5v2h-8v-1h5a1 1 0 0 0 1-1v-10a1 1 0 0 0 -1-1h-16a1 1 0 0 0 -1 1v10a1 1 0 0 0 1 1h5v1h-7a1 1 0 0 0 -1 1v4a1 1 0 0 0 1 1h2v13a1 1 0 0 0 1 1h3a1 1 0 0 0 1-1v-1h22v1a1 1 0 0 0 1 1h3a1 1 0 0 0 1-1v-13h2a1 1 0 0 0 1-1v-4a1 1 0 0 0 -1-1zm-13-2a3.009 3.009 0 0 1 3-3h4a3.009 3.009 0 0 1 3 3v2h-10zm-20-1v-8h14v8h-4v-1a3 3 0 0 0 -6 0v1zm8-1v4h-2v-4a1 1 0 0 1 2 0zm-6 22h-1v-12h1zm24-2h-22v-10h22zm3 2h-1v-12h1zm3-14h-34v-2h34z"/></g></g></svg>