<!-- icon666.com - MILLIONS vector ICONS FREE --><svg viewBox="0 -11 479.93292 479" xmlns="http://www.w3.org/2000/svg"><path d="m424 264.464844h48v16h-48zm0 0" fill="#80caca"/><path d="m440 248.464844h16v48h-16zm0 0" fill="#80caca"/><path d="m144 328.464844h48v16h-48zm0 0" fill="#80caca"/><path d="m160 312.464844h16v48h-16zm0 0" fill="#80caca"/><path d="m200 16.464844h48v16h-48zm0 0" fill="#80caca"/><path d="m216 .464844h16v48h-16zm0 0" fill="#80caca"/><path d="m472 216.464844h-304l80-80zm0 0" fill="#35729e"/><path d="m80 304.464844 88-88h304zm0 0" fill="#ffc98d"/><path d="m152 232.464844h-64l48-48h64zm0 0" fill="#e27f45"/><g fill="#35729e"><path d="m96 136.464844h112v16h-112zm0 0"/><path d="m0 256.464844h80v16h-80zm0 0"/><path d="m0 384.464844h80v16h-80zm0 0"/><path d="m0 168.464844h96v16h-96zm0 0"/><path d="m64 136.464844h16v16h-16zm0 0"/><path d="m16 208.464844h48v16h-48zm0 0"/><path d="m16 416.464844h64v16h-64zm0 0"/></g><path d="m400 360.464844h-96v-64h96zm0 0" fill="#f9bb4b"/><path d="m352 328.464844-48-32h96zm0 0" fill="#e27f45"/><path d="m200 448.464844h-96v-64h96zm0 0" fill="#e27f45"/><path d="m152 416.464844-48-32h96zm0 0" fill="#f9bb4b"/><path d="m168 80.464844h-96v-64h96zm0 0" fill="#f9bb4b"/><path d="m120 48.464844-48-32h96zm0 0" fill="#e27f45"/><path d="m456 112.464844h-96v-64h96zm0 0" fill="#e27f45"/><path d="m408 80.464844-48-32h96zm0 0" fill="#f9bb4b"/><path d="m0 24.464844h48v16h-48zm0 0" fill="#35729e"/><path d="m16 56.464844h32v16h-32zm0 0" fill="#35729e"/><path d="m256 56.464844h80v16h-80zm0 0" fill="#35729e"/><path d="m272 88.464844h64v16h-64zm0 0" fill="#35729e"/><path d="m216 336.464844h64v16h-64zm0 0" fill="#35729e"/><path d="m232 304.464844h48v16h-48zm0 0" fill="#35729e"/><path d="m32 312.464844h16v16h-16zm0 0" fill="#80caca"/><path d="m200 88.464844h16v16h-16zm0 0" fill="#80caca"/><path d="m312 8.464844h16v16h-16zm0 0" fill="#80caca"/><path d="m280 392.464844h16v16h-16zm0 0" fill="#80caca"/><path d="m392 144.464844h16v16h-16zm0 0" fill="#80caca"/><path d="m456 296.464844v-16h16v-16h-16v-16h-16v16h-16v16h16v16zm0 0"/><path d="m160 312.464844v16h-16v16h16v16h16v-16h16v-16h-16v-16zm0 0"/><path d="m216 .464844v16h-16v16h16v16h16v-16h16v-16h-16v-16zm0 0"/><path d="m96 136.464844h112v16h-112zm0 0"/><path d="m0 256.464844h80v16h-80zm0 0"/><path d="m0 384.464844h80v16h-80zm0 0"/><path d="m0 168.464844h96v16h-96zm0 0"/><path d="m64 136.464844h16v16h-16zm0 0"/><path d="m16 208.464844h48v16h-48zm0 0"/><path d="m16 416.464844h64v16h-64zm0 0"/><path d="m304 288.464844c-4.417969 0-8 3.582031-8 8v64c0 4.417968 3.582031 8 8 8h96c4.417969 0 8-3.582032 8-8v-64c0-4.417969-3.582031-8-8-8zm69.601562 16-21.601562 14.402344-21.601562-14.402344zm18.398438 48h-80v-41.054688l35.558594 23.710938c2.691406 1.796875 6.191406 1.796875 8.882812 0l35.558594-23.710938zm0 0"/><path d="m96 384.464844v64c0 4.417968 3.582031 8 8 8h96c4.417969 0 8-3.582032 8-8v-64c0-4.417969-3.582031-8-8-8h-96c-4.417969 0-8 3.582031-8 8zm77.601562 8-21.601562 14.402344-21.601562-14.402344zm-61.601562 6.945312 35.558594 23.710938c2.691406 1.796875 6.191406 1.796875 8.882812 0l35.558594-23.710938v41.054688h-80zm0 0"/><path d="m168 8.464844h-96c-4.417969 0-8 3.582031-8 8v64c0 4.417968 3.582031 8 8 8h96c4.417969 0 8-3.582032 8-8v-64c0-4.417969-3.582031-8-8-8zm-26.398438 16-21.601562 14.402344-21.601562-14.402344zm18.398438 48h-80v-41.054688l35.558594 23.710938c2.691406 1.796875 6.191406 1.796875 8.882812 0l35.558594-23.710938zm0 0"/><path d="m464 112.464844v-64c0-4.417969-3.582031-8-8-8h-96c-4.417969 0-8 3.582031-8 8v64c0 4.417968 3.582031 8 8 8h96c4.417969 0 8-3.582032 8-8zm-34.398438-56-21.601562 14.402344-21.601562-14.402344zm18.398438 48h-80v-41.054688l35.558594 23.710938c2.691406 1.796875 6.191406 1.796875 8.882812 0l35.558594-23.710938zm0 0"/><path d="m0 24.464844h48v16h-48zm0 0"/><path d="m16 56.464844h32v16h-32zm0 0"/><path d="m256 56.464844h80v16h-80zm0 0"/><path d="m272 88.464844h64v16h-64zm0 0"/><path d="m216 336.464844h64v16h-64zm0 0"/><path d="m232 304.464844h48v16h-48zm0 0"/><path d="m32 312.464844h16v16h-16zm0 0"/><path d="m200 88.464844h16v16h-16zm0 0"/><path d="m312 8.464844h16v16h-16zm0 0"/><path d="m280 392.464844h16v16h-16zm0 0"/><path d="m392 144.464844h16v16h-16zm0 0"/><path d="m474.679688 208.96875-224-80c-2.910157-1.050781-6.164063-.320312-8.34375 1.875l-45.648438 45.621094h-60.6875c-2.121094.003906-4.15625.84375-5.65625 2.34375l-48 48c-2.285156 2.289062-2.972656 5.730468-1.734375 8.71875 1.238281 2.988281 4.15625 4.9375 7.390625 4.9375h44.6875l-58.34375 58.34375c-2.285156 2.289062-2.972656 5.730468-1.734375 8.71875 1.238281 2.988281 4.15625 4.9375 7.390625 4.9375.589844 0 1.175781-.0625 1.753906-.191406l392-88c3.441406-.804688 5.949219-3.773438 6.164063-7.304688.214843-3.53125-1.914063-6.785156-5.238281-8zm-224.601563-63.269531 175.746094 62.765625h-238.511719zm-142.765625 78.765625 32-32h41.375l-32 32zm-2.152344 66.160156 66.152344-66.160156h228.527344zm0 0"/></svg>