<!-- icon666.com - MILLIONS vector ICONS FREE --><svg clip-rule="evenodd" fill-rule="evenodd" image-rendering="optimizeQuality" shape-rendering="geometricPrecision" text-rendering="geometricPrecision" viewBox="0 0 1707 1707" xmlns="http://www.w3.org/2000/svg"><g id="Layer_x0020_1"><path d="m1554 1053h-889c-11 0-20-9-20-20v-433c0-132-108-240-241-240-26 0-26-40 0-40h803c202 0 367 164 367 366v347c0 11-9 20-20 20zm-869-40h849v-327c0-180-147-326-327-326h-658c82 49 136 138 136 240z" fill="#000000"></path><path d="m665 631h-521c-21 0-20-20-20-31 0-155 126-280 280-280 155 0 281 125 281 280 0 11 1 31-20 31zm-501-40h481c-5-128-111-231-241-231-129 0-235 103-240 231z" fill="#000000"></path><path d="m1687 1184h-1543c-11 0-20-9-20-20v-131c0-11 9-20 20-20h1543c11 0 20 9 20 20v131c0 11-9 20-20 20zm-1523-40h1503v-91h-1503z" fill="#000000"></path><path d="m665 1184c-11 0-20-9-20-20v-131c0-27 40-26 40 0v131c0 11-9 20-20 20z" fill="#000000"></path><path d="m1277 1652h-174c-11 0-20-9-20-20v-468c0-11 9-20 20-20h174c11 0 20 9 20 20v468c0 11-9 20-20 20zm-154-40h134v-428h-134z" fill="#000000"></path><path d="m665 1053h-645c-11 0-20-9-20-20v-422c0-11 9-20 20-20h645c11 0 20 9 20 20v422c0 11-9 20-20 20zm-625-40h605v-382h-605z" fill="#000000"></path><path d="m378 898c-4 0-8-1-12-4l-358-267c-15-11-7-36 12-36h645c28 0 20 39 20 73 0 6-3 12-8 16l-287 214c-4 3-8 4-12 4zm-298-267 298 222 267-199v-23z" fill="#000000"></path><path d="m1399 1652h-417c-27 0-27-40 0-40h417c26 0 26 40 0 40z" fill="#000000"></path><path d="m1554 941h-889c-26 0-26-40 0-40h889c26 0 26 40 0 40z" fill="#000000"></path><path d="m1122 461c-11 0-20-9-20-20v-366c0-27 40-27 40 0v366c0 12-9 20-20 20z" fill="#000000"></path><path d="m1342 270h-220c-11 0-20-9-20-20v-175c0-11 9-20 20-20h220c11 0 20 9 20 20v175c0 11-9 20-20 20zm-200-40h180v-135h-180z" fill="#000000"></path><path d="m1122 605c-50 0-92-41-92-92 0-50 42-92 92-92 121 0 121 184 0 184zm0-144c-68 0-68 104 0 104 69 0 69-104 0-104z" fill="#000000"></path><path d="m378 853 267-199v-23h-501-64z" fill="#fc9532"></path><path d="m366 894-326-243v362h104 501v-309l-255 190c-4 3-8 4-12 4s-8-1-12-4z" fill="#fcb73e"></path><path d="m164 591h481c-5-128-111-231-241-231-129 0-235 103-240 231z" fill="#d02b56" style="fill: rgb(0, 38, 230);"></path><path d="m645 1053h-481v91h481z" fill="#d02b56" style="fill: rgb(0, 38, 230);"></path><path d="m685 1053v91h418 174 390v-91h-113z" fill="#e83c62" style="fill: rgb(0, 11, 163);"></path><path d="m685 1013h849v-72h-849z" fill="#d02b56" style="fill: rgb(0, 38, 230);"></path><path d="m685 901h849v-215c0-180-147-326-327-326h-65v63c101 19 94 182-20 182-50 0-92-41-92-92 0-43 31-80 72-89v-64h-553c82 49 136 138 136 240v4 7 2c2 14 0 33 0 51z" fill="#e83c62" style="fill: rgb(0, 11, 163);"></path><path d="m1122 461c-68 0-68 104 0 104 69 0 69-104 0-104z" fill="#e1dbff"></path><path d="m1142 230h180v-135h-180z" fill="#e83c62" style="fill: rgb(0, 11, 163);"></path><path d="m1257 1184h-134v428h134z" fill="#d2dafe" style="fill: rgb(146, 195, 185);"></path></g></svg>