<!-- icon666.com - MILLIONS vector ICONS FREE --><svg viewBox="0 0 512 512" xmlns="http://www.w3.org/2000/svg"><path d="m504.5 192.214844v301.878906c0 5.519531-4.480469 10-10 10h-477c-5.519531 0-10-4.480469-10-10v-301.878906c0-1.671875.410156-3.289063 1.179688-4.710938.808593-1.527344 2.019531-2.839844 3.539062-3.777344l7.242188-4.511718 231.257812-143.851563c3.230469-2.019531 7.332031-2.019531 10.5625 0l231.257812 143.851563 7.242188 4.511718c1.519531.9375 2.730469 2.25 3.539062 3.777344.769532 1.421875 1.179688 3.042969 1.179688 4.710938zm0 0" fill="#fc3e81"/><path d="m504.5 192.21875v301.878906c0 5.523438-4.476562 10-10 10h-477c-5.523438 0-10-4.476562-10-10v-301.878906c0-3.460938 1.78125-6.671875 4.71875-8.492188l7.242188-4.507812 236.539062 168.6875 236.539062-168.6875 7.242188 4.507812c2.9375 1.820313 4.71875 5.03125 4.71875 8.492188zm0 0" fill="#f01054"/><path d="m325.46875 312.472656-91.417969 91.410156c-3.332031 3.332032-8.730469 3.332032-12.0625 0l-52.5-52.5c-3.328125-3.339843-3.328125-8.738281 0-12.070312l91.410157-91.410156c3.332031-3.328125 8.730468-3.328125 12.0625 0l51.308593 51.3125 1.199219 1.199218c3.332031 3.328126 3.332031 8.730469 0 12.058594zm0 0" fill="#bddff4"/><path d="m325.46875 312.472656-91.417969 91.410156c-3.332031 3.332032-8.730469 3.332032-12.0625 0l-52.5-52.5c-3.328125-3.339843-3.328125-8.738281 0-12.070312l31-31 55.511719 39.589844 68.269531-48.6875 1.199219 1.199218c3.332031 3.328126 3.332031 8.730469 0 12.058594zm0 0" fill="#adc9e2"/><path d="m504.5 192.214844v301.878906c0 5.519531-4.480469 10-10 10h-477c-5.519531 0-10-4.480469-10-10v-301.878906c0-1.671875.410156-3.289063 1.179688-4.710938l247.320312 176.371094 247.320312-176.371094c.769532 1.421875 1.179688 3.042969 1.179688 4.710938zm0 0" fill="#e3f4ff"/><path d="m504.5 192.214844v301.878906c0 5.519531-4.480469 10-10 10h-21.328125c5.519531 0 10-4.480469 10-10v-292.21875l20.148437-14.371094c.769532 1.421875 1.179688 3.042969 1.179688 4.710938zm0 0" fill="#bddff4"/><path d="m319.914062 182.746094 46.386719 46.382812c2.941407 2.941406 7.710938 2.941406 10.652344 0l80.761719-80.757812c2.941406-2.941406 2.941406-7.710938 0-10.65625l-46.386719-46.382813c-2.941406-2.941406-7.714844-2.941406-10.65625 0l-80.757813 80.757813c-2.941406 2.941406-2.941406 7.714844 0 10.65625zm0 0" fill="#e3f4ff"/><path d="m223.871094 135.699219 65.019531 8.714843c4.125.554688 7.914063-2.339843 8.46875-6.464843l15.175781-113.195313c.550782-4.125-2.34375-7.917968-6.46875-8.46875l-65.015625-8.714844c-4.125-.554687-7.917969 2.339844-8.46875 6.464844l-15.175781 113.195313c-.554688 4.125 2.34375 7.917969 6.464844 8.46875zm0 0" fill="#bddff4"/><path d="m109.40625 362.222656-51.269531 79.636719c-3.433594 5.335937.398437 12.363281 6.746093 12.363281h102.535157c6.347656 0 10.179687-7.027344 6.742187-12.363281l-51.265625-79.636719c-3.160156-4.902344-10.332031-4.902344-13.488281 0zm0 0" fill="#fc3e81"/><path d="m134.347656 50.285156-64.71875 64.71875c-4.105468 4.105469-4.105468 10.761719 0 14.867188l112.675782 112.675781c4.105468 4.105469 10.761718 4.105469 14.867187 0l64.71875-64.71875c4.105469-4.101563 4.105469-10.761719 0-14.867187l-112.675781-112.675782c-4.109375-4.105468-10.765625-4.105468-14.867188 0zm0 0" fill="#e3f4ff"/><path d="m503.742188 177.355469-39.765626-24.738281c2.226563-2.6875 3.445313-6.035157 3.445313-9.574219 0-4.015625-1.566406-7.789063-4.40625-10.628907l-46.382813-46.386718c-5.863281-5.859375-15.402343-5.859375-21.265624 0l-14.738282 14.742187-65.277344-40.601562 4.617188-34.417969c.53125-3.980469-.515625-7.929688-2.953125-11.121094s-5.972656-5.242187-9.953125-5.777344l-65.015625-8.714843c-3.980469-.535157-7.929687.511719-11.121094 2.949219-3.195312 2.4375-5.246093 5.972656-5.78125 9.953124l-4.296875 32.074219-40.816406 25.386719-25.515625-25.519531c-7.023437-7.019531-18.453125-7.019531-25.476563 0l-64.71875 64.71875c-7.023437 7.023437-7.023437 18.453125 0 25.476562l4.503907 4.503907-60.570313 37.675781c-5.167968 3.214843-8.253906 8.769531-8.253906 14.859375v301.878906c0 9.648438 7.851562 17.5 17.5 17.5h179.238281c4.144531 0 7.5-3.355469 7.5-7.5 0-4.140625-3.355469-7.5-7.5-7.5h-179.238281c-1.378906 0-2.5-1.121094-2.5-2.5v-292.875l236.644531 168.769531c1.304688.925781 2.828125 1.390625 4.355469 1.390625s3.050781-.464844 4.355469-1.390625l236.644531-168.769531v92.300781c0 4.140625 3.359375 7.5 7.5 7.5s7.5-3.359375 7.5-7.5v-101.304687c0-6.089844-3.085938-11.644532-8.257812-14.859375zm-51.332032-34.285157-80.808594 80.757813-42.152343-42.152344 56.476562-13.078125c5.550781-1.28125 9.96875-5.699218 11.253907-11.253906l13.078124-56.472656zm-59.644531-33.183593-10.222656 44.097656-44.125 10.21875zm-102.878906 27.097656-50.082031-6.714844-5.472657-5.472656 33.421875-40.402344c3.628906-4.390625 4.460938-10.582031 2.113282-15.777343l-23.878907-52.816407 59.113281 7.957031zm-44.382813 20.199219-71.664062-16.59375c-1.109375-.257813-1.996094-1.144532-2.253906-2.253906l-16.59375-71.664063zm-7.945312-123.605469 18.636718 41.257813-28.871093 34.902343zm-19.292969 30.808594-5.242187 39.101562-22.097657-22.097656zm-103.507813 121.222656c2.929688 2.929687 7.679688 2.929687 10.605469 0 2.929688-2.929687 2.929688-7.675781 0-10.605469l-50.433593-50.4375c-.769532-.769531-.882813-1.664062-.882813-2.128906s.117187-1.363281.882813-2.128906l62.59375-62.59375 19.449218 84.003906c1.542969 6.648438 6.835938 11.945312 13.484375 13.484375l84.003907 19.449219-62.59375 62.589844c-1.175782 1.175781-3.085938 1.175781-4.257813 0l-37.832031-37.828126c-2.929688-2.929687-7.679688-2.929687-10.605469 0-2.929687 2.929688-2.929687 7.675782 0 10.605469l37.832031 37.832031c3.507813 3.511719 8.121094 5.265626 12.734375 5.265626s9.226563-1.753907 12.738281-5.265626l64.71875-64.71875c7.023438-7.023437 7.023438-18.453124 0-25.476562l-9.914062-9.914062 30.613281 4.105468c.675781.089844 1.34375.136719 2.007813.136719 7.40625 0 13.878906-5.5 14.890625-13.039063l8.375-62.476562 56.566406 35.191406-55.125 55.125c-5.859375 5.859375-5.859375 15.398438 0 21.261719l46.386719 46.386719c2.839844 2.839844 6.613281 4.402344 10.632812 4.402344 4.015625 0 7.789063-1.5625 10.628906-4.402344l70.886719-70.890625 37.839844 23.539062-157.242187 112.144531c-.757813-1.503906-1.746094-2.894531-2.972657-4.121093l-52.503906-52.503907c-6.25-6.25-16.417969-6.25-22.667969 0l-65.246094 65.246094-169.335937-120.765625 58.699219-36.515625zm87.976563 131.070313 50.984375-50.984376-12.347656 53.324219c-.089844.378907-.390625.679688-.769532.769531l-25.296874 5.855469zm53.265625 37.988281-24.398438-17.398438 12.382813-2.867187c5.917969-1.371094 10.628906-6.078125 12-12l15.203125-65.664063 48.976562 48.976563c.25.25.304688.53125.304688.726562 0 .195313-.054688.480469-.304688.730469l-6.066406 6.066406zm0 0"/><path d="m504.5 320.539062c-4.140625 0-7.5 3.359376-7.5 7.5v166.054688c0 1.378906-1.121094 2.5-2.5 2.5h-263.238281c-4.144531 0-7.5 3.359375-7.5 7.5 0 4.144531 3.355469 7.5 7.5 7.5h263.238281c9.648438 0 17.5-7.851562 17.5-17.5v-166.054688c0-4.140624-3.359375-7.5-7.5-7.5zm0 0"/><path d="m459.921875 424.722656c4.140625 0 7.5-3.359375 7.5-7.5 0-4.144531-3.359375-7.5-7.5-7.5h-31c-4.144531 0-7.5 3.355469-7.5 7.5 0 4.140625 3.355469 7.5 7.5 7.5zm0 0"/><path d="m349 448.476562c0 4.144532 3.359375 7.5 7.5 7.5h103.421875c4.140625 0 7.5-3.355468 7.5-7.5 0-4.140624-3.359375-7.5-7.5-7.5h-103.421875c-4.140625 0-7.5 3.359376-7.5 7.5zm0 0"/><path d="m116.148438 351.046875c-5.300782 0-10.179688 2.660156-13.046876 7.117187l-51.269531 79.632813c-3.078125 4.78125-3.296875 10.847656-.574219 15.835937 2.71875 4.988282 7.941407 8.089844 13.625 8.089844h102.535157c5.683593 0 10.902343-3.101562 13.625-8.089844 2.722656-4.988281 2.5-11.054687-.574219-15.832031l-51.269531-79.636719c-2.871094-4.457031-7.746094-7.117187-13.050781-7.117187zm51.726562 95.402344c-.148438.273437-.335938.273437-.457031.273437h-102.535157c-.125 0-.3125 0-.457031-.273437-.148437-.269531-.046875-.425781.019531-.53125l51.265626-79.632813c.054687-.085937.15625-.238281.4375-.238281.285156 0 .386718.152344.441406.238281l51.265625 79.632813c.066406.105469.167969.261719.019531.53125zm0 0"/><path d="m108.648438 395.050781v13.054688c0 4.140625 3.359374 7.5 7.5 7.5 4.144531 0 7.5-3.359375 7.5-7.5v-13.054688c0-4.144531-3.355469-7.5-7.5-7.5-4.140626 0-7.5 3.355469-7.5 7.5zm0 0"/><path d="m116.285156 422.457031h-.074218c-4.128907-.058593-7.507813 3.257813-7.5625 7.402344-.050782 4.140625 3.296874 7.542969 7.441406 7.597656h.097656c4.097656 0 7.445312-3.292969 7.5-7.402343.054688-4.140626-3.261719-7.542969-7.402344-7.597657zm0 0"/></svg>