<!-- icon666.com - MILLIONS vector ICONS FREE --><svg id="Layer_1" viewBox="0 0 512 512" xmlns="http://www.w3.org/2000/svg" data-name="Layer 1"><rect fill="#fcee86" height="340.168" rx="27.661" width="496.753" x="7.247" y="163.61"/><path d="m471.707 503.778h-432.167a32.108 32.108 0 0 1 -32.293-31.92v-265.482l226.432 151.475h43.89l226.431-151.475v265.482a32.108 32.108 0 0 1 -32.293 31.92z" fill="#35acef"/><path d="m123.022 125.465 156.978 162.313 12-4 5-49 21-41 32.89-26.405 15.297-41.908-7.187-31.687-45-44h-35.901l-33.495 11.824-23.501 34.286-36.103 17.89z" fill="#ff5364"/><path d="m270.871 290.5a15.952 15.952 0 0 0 26.679-15.439 114.306 114.306 0 0 1 33.313-81.831l18.067-18.067a76.989 76.989 0 0 0 17.632-81.2 8.016 8.016 0 0 0 -15.018 5.611 60.917 60.917 0 0 1 -13.95 64.249l-18.067 18.068a130.392 130.392 0 0 0 -37.984 94.661l.03 1.394.363.945-149.9-149.891.944.362 1.4.031a130.4 130.4 0 0 0 94.656-37.993l18.064-18.064a60.972 60.972 0 0 1 63.912-14.076 8.015 8.015 0 1 0 5.519-15.051 77.052 77.052 0 0 0 -80.763 17.791l-18.068 18.067a114.421 114.421 0 0 1 -81.832 33.313 15.952 15.952 0 0 0 -15.44 26.679z"/><path d="m172.1 206.266a8.015 8.015 0 0 0 -11.336 0 29.8 29.8 0 0 0 42.146 42.146 8.016 8.016 0 0 0 -11.336-11.336 13.771 13.771 0 0 1 -19.48-19.476 8.014 8.014 0 0 0 .006-11.334z"/><path d="m311.415 99.515a8.018 8.018 0 0 0 11.336 0l52.168-52.168a8.016 8.016 0 0 0 -11.335-11.337l-52.169 52.168a8.018 8.018 0 0 0 0 11.337z"/><path d="m229.127 30.694a7.976 7.976 0 0 0 3.8-.964 108.878 108.878 0 0 1 65.923-12.19 8.016 8.016 0 0 0 2.035-15.9 124.836 124.836 0 0 0 -75.572 13.986 8.017 8.017 0 0 0 3.814 15.071z"/><path d="m384.446 188.864a8.01 8.01 0 0 0 10.861-3.246 124.837 124.837 0 0 0 13.986-75.572 8.016 8.016 0 0 0 -15.9 2.034 108.885 108.885 0 0 1 -12.193 65.92 8.015 8.015 0 0 0 3.246 10.864z"/><path d="m474.872 155.515h-47.036a8.016 8.016 0 1 0 0 16.031h47.036a21.121 21.121 0 0 1 21.1 21.1v6.98l-206.617 142.374a59.109 59.109 0 0 1 -66.71 0l-206.614-142.377v-6.98a21.121 21.121 0 0 1 21.1-21.1h78.1a8.016 8.016 0 1 0 0-16.031h-78.1a37.171 37.171 0 0 0 -37.131 37.131v281.628a37.171 37.171 0 0 0 37.128 37.129h437.744a37.171 37.171 0 0 0 37.128-37.129v-281.628a37.171 37.171 0 0 0 -37.128-37.128zm-437.744 339.853a21.061 21.061 0 0 1 -4.393-.467l122.132-137.801a8.015 8.015 0 0 0 -12-10.633l-123.427 139.265a20.965 20.965 0 0 1 -3.409-11.461v-255.179l197.517 136.108a75.229 75.229 0 0 0 84.9 0l197.518-136.1v255.171a20.957 20.957 0 0 1 -3.409 11.461l-123.427-139.269a8.015 8.015 0 1 0 -12 10.633l122.134 137.804a21.119 21.119 0 0 1 -4.392.466z"/></svg>