<!-- icon666.com - MILLIONS vector ICONS FREE --><svg enable-background="new 0 0 512 512" viewBox="0 0 512 512" xmlns="http://www.w3.org/2000/svg"><g id="_x36_7_sending_mail"><g><path d="m479.423 224.199v250.345c0 13.754-11.15 24.903-24.903 24.903h-397.04c-13.754 0-24.903-11.15-24.903-24.903v-250.345c0-13.754 11.15-24.903 24.903-24.903h397.04c13.753 0 24.903 11.15 24.903 24.903z" fill="#d7e9ff" style="fill: rgb(0, 51, 255);"></path><path d="m471.828 206.42-150.333 142.945-42.584 40.509c-12.867 12.203-32.955 12.203-45.822 0l-42.584-40.509-150.333-142.945" fill="#94c1ff" style="fill: rgb(25, 18, 125);"></path><path d="m299.639 142.579 27.353-57.25-27.359-57.264c-4.22-8.832 4.54-18.275 13.664-14.73l159.235 61.882c9.187 3.57 9.189 16.568.004 20.141l-159.229 61.948c-9.125 3.551-17.889-5.893-13.668-14.727z" fill="#fff" style="fill: rgb(24, 37, 216);"></path><g fill="#116fff"><path d="m454.518 191.446h-397.036c-18.064 0-32.757 14.693-32.757 32.753v250.348c0 18.06 14.693 32.753 32.757 32.753h397.037c18.064 0 32.757-14.693 32.757-32.753v-250.348c0-18.06-14.694-32.753-32.758-32.753zm-121.615 157.925 137.616-130.867c.64 1.79 1.052 3.689 1.052 5.696v250.348c0 1.981-.405 3.855-1.03 5.626zm121.615-142.219c1.55 0 3.022.275 4.45.663-59.126 56.226-114.093 108.497-185.461 176.363-9.824 9.302-25.204 9.302-35.004.008-82.125-78.096-164.801-156.715-185.472-176.371 1.428-.389 2.901-.663 4.45-.663zm-413.059 273.021c-.625-1.771-1.03-3.645-1.03-5.626v-250.348c0-2.007.412-3.906 1.052-5.696l137.618 130.867zm16.023 11.422c-1.576 0-3.073-.284-4.523-.686l137.534-130.704 37.194 35.37c15.885 15.071 40.748 15.054 56.638-.008l37.184-35.361 137.533 130.703c-1.45.403-2.947.686-4.523.686z" fill="#116fff" style="fill: rgb(0, 0, 0);"></path><path d="m318.286 85.333-25.733 53.866v-.008c-7.274 15.236 7.857 31.564 23.601 25.43l159.231-61.949c15.84-6.154 15.837-28.617-.008-34.77l-159.231-61.88c-15.69-6.125-30.894 10.163-23.601 25.422zm-7.834-64.679 159.235 61.88c2.513.989 2.536 4.52 0 5.506l-159.231 61.949c-2.509.971-4.889-1.596-3.731-4.018 0-.008 0-.008 0-.008l25.215-52.777h71.178c4.337 0 7.853-3.512 7.853-7.853s-3.516-7.853-7.853-7.853h-71.178l-25.223-52.807c-1.151-2.41 1.21-4.992 3.735-4.019z" fill="#116fff" style="fill: rgb(0, 0, 0);"></path><path d="m253.45 125.049h20.207c4.337 0 7.853-3.512 7.853-7.853s-3.516-7.853-7.853-7.853h-20.207c-4.337 0-7.853 3.512-7.853 7.853s3.516 7.853 7.853 7.853z" fill="#116fff" style="fill: rgb(0, 0, 0);"></path><path d="m253.45 93.178h40.84c4.337 0 7.853-3.512 7.853-7.853s-3.516-7.853-7.853-7.853h-40.84c-4.337 0-7.853 3.512-7.853 7.853s3.516 7.853 7.853 7.853z" fill="#116fff" style="fill: rgb(0, 0, 0);"></path><path d="m253.45 61.299h20.207c4.337 0 7.853-3.512 7.853-7.853s-3.516-7.853-7.853-7.853h-20.207c-4.337 0-7.853 3.512-7.853 7.853s3.516 7.853 7.853 7.853z" fill="#116fff" style="fill: rgb(0, 0, 0);"></path></g></g></g></svg>