<!-- icon666.com - MILLIONS vector ICONS FREE --><svg id="Layer_1" viewBox="0 0 512 512" xmlns="http://www.w3.org/2000/svg" xmlns:xlink="http://www.w3.org/1999/xlink" data-name="Layer 1"><linearGradient id="GradientFill_1" gradientUnits="userSpaceOnUse" x1="256" x2="256" y1="454.466" y2="57.534"><stop offset="0" stop-color="#6c54a3"/><stop offset="1" stop-color="#00b1d2"/></linearGradient><path d="m322.749 233.337 157.231-128.23c0 .136.019.278.019.429v291.418zm-108.62 20.288-162.259 168.839h408.256l-162.25-168.839-31.765 25.911a16 16 0 0 1 -20.222 0zm41.871-7.137 192.437-156.952h-384.879zm-224-140.952c0-.151.019-.293.019-.429l157.221 128.23-157.24 163.617zm432-48h-416a48.049 48.049 0 0 0 -48 48v300.928a48.049 48.049 0 0 0 48 48h416a48.053 48.053 0 0 0 48-48v-300.928a48.053 48.053 0 0 0 -48-48.001z" fill="url(#GradientFill_1)" fill-rule="evenodd"/></svg>