<svg version="1.1" id="Capa_1" xmlns="http://www.w3.org/2000/svg" xmlns:xlink="http://www.w3.org/1999/xlink" x="0px" y="0px" viewBox="0 0 511.999 511.999" style="enable-background:new 0 0 511.999 511.999;" xml:space="preserve">
    <defs>
        <!-- Definición del gradiente de color con múltiples colores -->
        <linearGradient id="colorGradient" x1="0%" y1="0%" x2="100%" y2="100%">
            <stop offset="0%" style="stop-color:#ff0000; stop-opacity:1">
                <animate attributeName="stop-color" values="#ff0000; #ff7f00; #ffff00; #7fff00; #00ff00; #00ff7f; #00ffff; #007fff; #0000ff; #7f00ff; #ff00ff; #ff0000" dur="10s" repeatCount="indefinite" />
            </stop>
            <stop offset="100%" style="stop-color:#00ff00; stop-opacity:1">
                <animate attributeName="stop-color" values="#00ff00; #00ff7f; #00ffff; #007fff; #0000ff; #7f00ff; #ff00ff; #ff7f00; #ffff00; #7fff00; #00ff00" dur="10s" repeatCount="indefinite" />
            </stop>
        </linearGradient>

        <!-- Definición de la animación de opacidad -->
        <style>
            @keyframes fadeInOut {
                0% { opacity: 0; }
                50% { opacity: 1; }
                100% { opacity: 0; }
            }
        </style>
    </defs>

    <g fill="url(#colorGradient)" style="animation: fadeInOut 5s infinite;">
        <circle cx="347.001" cy="121" r="15" />
        <path d="M507.607,182.816l-42.426-42.425c-5.857-5.858-15.355-5.858-21.213,0l-21.967,21.967V142.29c0-43.297-27.349-81.383-66.507-92.618c-40.858-11.721-82.482,5.369-103.98,39.152l-4.903,7.705c-13.197-14.019-29.845-25.381-48.374-32.792L81.573,17.07c-4.973-1.989-10.63-1.177-14.84,2.134c-4.211,3.309-6.338,8.613-5.581,13.915l18,126c0.48,3.36,1.031,6.708,1.64,10.045c-43.307,10.712-75.328,45.046-76.83,46.678c-5.276,5.735-5.282,14.556-0.013,20.297c1.869,2.036,46.392,49.859,102.052,49.859c6.658,0,13.233-0.345,19.677-1.005l-61.416,96.511l-59.78,58.8c-3.729,3.667-5.277,9.011-4.089,14.104c1.189,5.092,4.944,9.198,9.911,10.835l91,30c7.833,2.584,16.308-1.647,18.927-9.502l26.581-79.744h80.179c74.439,0,135-60.561,135-135v-75h26.369l-8.033,8.033c-5.854,5.853-5.858,15.356,0,21.213l42.427,42.426c5.857,5.858,15.355,5.859,21.213,0l63.64-63.64C513.461,198.176,513.465,188.673,507.607,182.816zM106.001,255.999c-28.565-0.001-54.815-18.099-68.981-29.991c11.107-9.314,29.615-22.425,50.811-27.689c6.044,20.062,14.405,39.402,24.87,57.539C110.482,255.947,108.249,255.999,106.001,255.999zM96.498,462.071L43.049,444.45l39.093-38.452h33.048L96.498,462.071zM392.001,165.998h-45.008c-8.284,0-14.9,6.716-14.9,15v90c0,57.897-47.203,105-105.1,105c-29.294,0-94.295,0-123.666,0l45.393-71.332c2.184,2.35,4.405,4.667,6.676,6.938c5.857,5.858,15.355,5.858,21.213,0c5.858-5.857,5.858-15.355,0-21.213c-36.412-36.413-60.476-84.54-67.757-135.515L94.52,54.561l92.576,37.03c53.189,21.276,84.735,86.203,56.489,142.699c-3.705,7.41-0.702,16.42,6.708,20.125c7.409,3.705,16.42,0.701,20.124-6.708c19.933-39.867,18.007-87.293-4.69-125.336l11.098-17.439c15.005-23.579,43.294-34.198,70.396-26.421c26.366,7.562,44.78,33.79,44.78,63.779V165.998zM433.362,235.85l-21.214-21.213l42.427-42.426l21.214,21.213L433.362,235.85z"/>
    </g>
</svg>
