<!-- icon666.com - MILLIONS vector ICONS FREE --><svg id="Layer_1" viewBox="0 0 512 512" xmlns="http://www.w3.org/2000/svg" data-name="Layer 1"><rect fill="#97f7d7" height="500" rx="49.143" width="266" x="78" y="5.778"/><path d="m128 225.778 347.637-171.724-81.637 248.724-72.648-26.211-80.352 89.211-28.225-110-81.775-22z" fill="#ff5364"/><path d="m471.54 47.707-117.289 57.814v-59.127a46.446 46.446 0 0 0 -46.395-46.394h-190.164a46.446 46.446 0 0 0 -46.392 46.394v268.806a8.016 8.016 0 0 0 16.031 0v-268.806a30.4 30.4 0 0 1 30.362-30.363h190.163a30.4 30.4 0 0 1 30.363 30.363v65.446a8.07 8.07 0 0 0 .147 1.51l-213.153 105.065a11.67 11.67 0 0 0 2.811 21.9l76.689 15.758 25.206 105.645a11.6 11.6 0 0 0 11.312 8.84h.273a11.594 11.594 0 0 0 9.785-5.731l51.823-57.829a8.016 8.016 0 0 0 -11.94-10.7l-30.563 34.102 15.19-59.071 113.72 36.791c5.879 1.764 11.891-.24 14.739-7.647l78.169-242.226.007-.021c.048-.152.085-.3.125-.458 2.014-8.394-7.044-12.017-11.019-10.061zm-251.216 204.72 74.447-57.444a8.015 8.015 0 1 0 -9.792-12.691l-75.64 58.363-65.626-13.485 290.697-143.287-168.036 166.341a11.553 11.553 0 0 0 -3.47 6.88l-21.504 83.64zm169.977 39.1-107.67-34.834 174.729-172.971z"/><path d="m346.235 330.833a8.016 8.016 0 0 0 -8.016 8.016v126.757a30.4 30.4 0 0 1 -30.363 30.363h-190.164a30.4 30.4 0 0 1 -30.362-30.363v-46.406a8.016 8.016 0 1 0 -16.031 0v46.4a46.446 46.446 0 0 0 46.393 46.4h190.164a46.446 46.446 0 0 0 46.395-46.394v-126.757a8.016 8.016 0 0 0 -8.016-8.016z"/><path d="m192.794 470.269a8.015 8.015 0 0 0 8.015 8.015h23.931a8.016 8.016 0 1 0 0-16.031h-23.931a8.015 8.015 0 0 0 -8.015 8.016z"/><path d="m262.055 54.054a8.016 8.016 0 1 0 0-16.031h-98.562a8.016 8.016 0 0 0 0 16.031z"/><path d="m187.168 279.419a8.016 8.016 0 0 0 -11.294-.968l-143.869 121.149a8.016 8.016 0 1 0 10.327 12.262l143.868-121.149a8.016 8.016 0 0 0 .968-11.294z"/><path d="m189.217 333.291-51.317 44.96a8.016 8.016 0 0 0 10.563 12.059l51.323-44.96a8.016 8.016 0 1 0 -10.564-12.059z"/></svg>