<!-- icon666.com - MILLIONS vector ICONS FREE --><svg viewBox="-48 0 480 480.00806" xmlns="http://www.w3.org/2000/svg" xmlns:xlink="http://www.w3.org/1999/xlink"><linearGradient id="a"><stop offset="0" stop-color="#12c2e9"/><stop offset=".5" stop-color="#c471ed"/><stop offset="1" stop-color="#f64f59"/></linearGradient><linearGradient id="b" gradientUnits="userSpaceOnUse" x1="192.00403" x2="192.00403" xlink:href="#a" y1="559.856" y2="-124.824"/><linearGradient id="c" gradientUnits="userSpaceOnUse" x1="128.00403" x2="128.00403" xlink:href="#a" y1="559.504" y2="-125.584"/><path d="m5.476562 479.585938c3.265626 1.109374 6.875-.015626 8.925782-2.785157l113.601562-151.464843 113.601563 151.464843c1.507812 2.011719 3.878906 3.199219 6.398437 3.199219 4.417969 0 8-3.582031 8-8v-264h120c4.417969 0 8-3.582031 8-8v-128c-.042968-39.746094-32.253906-71.9570312-72-72h-240c-39.746094.0429688-71.957031 32.253906-71.99999975 72v400c.00390625 3.441406 2.20703175 6.496094 5.47265575 7.585938zm306.527344-463.585938c30.910156.039062 55.960938 25.089844 56 56v120h-112v-120c.039063-30.910156 25.089844-55.960938 56-56zm-296 56c.039063-30.910156 25.089844-55.960938 56-56h194.792969c-16.945313 13.652344-26.792969 34.242188-26.792969 56v376l-105.601562-140.800781c-1.507813-2.011719-3.878906-3.199219-6.398438-3.199219-2.519531 0-4.890625 1.1875-6.398437 3.199219l-105.601563 140.800781zm0 0" fill="url(#b)"/><path d="m197.261719 113.375c0-9.707031-5.847657-18.460938-14.820313-22.175781-8.96875-3.714844-19.292968-1.660157-26.15625 5.207031l-50.90625 50.90625-5.65625-5.65625c-6.042968-6.144531-14.921875-8.578125-23.253906-6.371094-8.335938 2.207032-14.84375 8.714844-17.054688 17.050782-2.207031 8.332031.222657 17.210937 6.367188 23.257812l33.941406 33.941406c3.125 3.125 8.1875 3.125 11.3125 0l79.199219-79.199218c4.515625-4.488282 7.042969-10.59375 7.027344-16.960938zm-18.34375 5.65625-73.539063 73.535156-28.285156-28.292968c-1.511719-1.492188-2.359375-3.527344-2.347656-5.648438 0-3.238281 1.949218-6.160156 4.941406-7.398438 2.992188-1.238281 6.4375-.550781 8.722656 1.742188l11.3125 11.3125c3.125 3.121094 8.1875 3.121094 11.3125 0l56.5625-56.5625c1.5-1.5 3.535156-2.34375 5.660156-2.34375 2.121094 0 4.15625.84375 5.660157 2.34375 1.507812 1.492188 2.355469 3.527344 2.34375 5.648438 0 2.125-.84375 4.164062-2.34375 5.664062zm0 0" fill="url(#c)"/></svg>