<!-- icon666.com - MILLIONS vector ICONS FREE --><svg id="Layer_1" enable-background="new 0 0 64 64" viewBox="0 0 64 64" xmlns="http://www.w3.org/2000/svg"><g><g><path d="m29.7 9.8-12.3-5.7-11.1 5.8-2.3 13.4 20.8 39.6 25.7-13.5z" fill="#fff"></path><g><path d="m8.2 22.6 1.7-10 7.6-4 9.3 4.2 18.3 34.9-18.6 9.8z" fill="#f15f50" style="fill: rgb(143, 14, 0);"></path></g><path d="m25.3 4.3-13.5-.2-7.8 9.8 3.3 13.2 35.1 27.7 18-22.8z" fill="#fff"></path><path d="m42.3 54.7.3-.1-.2.2z" fill="#fff"></path><g><path d="m10.9 24.8-2.6-9.9 5.4-6.8 10.2.2 30.9 24.4-13 16.5z" fill="#d3d7da" style="fill: rgb(210, 15, 158);"></path></g><path d="m17.3.8-13.2 5.6-3.3 12.9 8.9 11.2 45.8 11.7 7.5-29.7z" fill="#fff"></path><g><path d="m12 27-6.8-8.6 2.3-9 10.1-4.4 40.6 10.4-5.6 21.9z" fill="#27a2de"></path></g><g><circle cx="12.7" cy="15.1" fill="#fff" r="2"></circle></g><g fill="#fff"><path d="m35.3 20.2-.4 2" fill="#fff"></path><path d="m41.4 21.5-.4 2" fill="#fff"></path><path d="m47.6 22.8-.4 2" fill="#fff"></path></g></g><g fill="#193651"><path d="m17.2-.1-13.9 5.9-3.5 13.7 3.3 4.2 21.2 40.4 17-8.9 1.1.9 2-2.6 7.1-3.7-1.5-3.2 3.2-4.1 2.9.7 1.6-6.4 3.9-5-2.2-1.8 4.7-18.3zm8 61.8-16-30.4 3 .8 27.7 21.9zm22.2-11.7 1.4-1.8.4.8zm-5.1 3.5-25.8-20.3 34.8 8.9zm16.6-21 .1-.5.2.1zm-4.1 8.6-44.6-11.4-8.4-10.6 3.1-12 12.4-5.3 44.6 11.4z" fill="#193651"></path><path d="m34.1 20.3h2v1.8h-2z" transform="matrix(.208 -.978 .978 .208 7.056 51.079)" fill="#193651"></path><path d="m40.2 21.6h2v1.8h-2z" transform="matrix(.208 -.978 .978 .208 10.669 58.152)" fill="#193651"></path><path d="m46.4 22.9h2v1.8h-2z" transform="matrix(.208 -.978 .978 .208 14.246 65.194)" fill="#193651"></path></g></g></svg>